<svg width="87" height="86" viewBox="0 0 87 86" fill="none" xmlns="http://www.w3.org/2000/svg">
<path d="M6.00114 3.87387L4.45247 3.89487L4.43164 5.4432C4.43164 15.6804 5.47002 25.9078 8.55225 34.2708C11.6345 42.6338 16.9198 49.2397 25.2282 51.5246L25.6011 51.6244L25.9736 51.5454C26.3255 51.4697 26.6755 51.3857 27.0234 51.2935C30.2004 58.5149 35.2421 64.1011 42.7443 66.1641L43.1118 66.2639L43.4844 66.1849C43.6834 66.1429 43.8769 66.0955 44.0723 66.0489C47.44 74.5019 52.8292 80.8214 61.1107 83.0977C80.1672 79.0342 83.1096 55.9796 83.1096 33.263H63.9028C64.2715 28.9529 64.3908 24.5063 64.3908 20.0829V18.5135H46.3976C46.7604 14.2375 46.8805 9.82903 46.8805 5.4432V3.87387H6.00114ZM7.59181 7.0127H43.7259C43.6974 10.9069 43.5579 14.7813 43.2324 18.5135H21.9478V20.0829C21.9478 30.0876 22.9366 40.0832 25.8584 48.3382C25.8036 48.3517 25.7504 48.3676 25.6955 48.3802C18.7486 46.3226 14.3181 40.8393 11.4971 33.1846C8.77531 25.8003 7.69763 16.4962 7.59181 7.0127ZM25.1076 21.6522H61.2419C61.213 25.5838 61.0662 29.498 60.7329 33.263H39.1276C39.1276 43.789 40.1388 54.2642 42.9539 62.9414C36.152 60.8262 31.7941 55.3857 29.0075 47.8242C26.2859 40.44 25.2134 31.1357 25.1073 21.6524L25.1076 21.6522ZM43.3164 36.6064H79.12V38.1761C79.12 47.2674 78.5294 56.481 76.1019 64.0067C73.6744 71.5324 69.1933 77.5282 61.667 79.2868L61.2577 79.3812L60.8532 79.2603C53.9708 77.1875 49.5435 71.265 46.9118 63.8231C44.2802 56.3811 43.3162 47.2849 43.3162 38.1759V36.6066L43.3164 36.6064ZM46.4764 39.7458C46.5856 48.0908 47.5746 56.2756 49.8722 62.7731C52.2574 69.5174 55.9359 74.2964 61.3835 76.1055C67.3996 74.5203 70.9269 69.8234 73.1147 63.0409C75.2239 56.5018 75.877 48.1656 75.9492 39.7453H46.4766L46.4764 39.7458Z" fill="#AFAFAF"/>
</svg>
