<svg width="18" height="20" viewBox="0 0 18 20" fill="none" xmlns="http://www.w3.org/2000/svg">
<path d="M16.5483 0.78125L12.9448 1.9457L14.4038 0.848437C13.4827 1.07969 12.319 1.53203 10.8565 2.26211L8.46938 5.02734L9.31664 3.0957C8.4975 3.60195 7.62914 4.26563 6.79242 5.04297L6.23695 7.55469L6.11742 5.69531C5.29125 6.53906 4.5143 7.47656 3.87094 8.46484C3.19488 9.5 2.66648 10.5938 2.40176 11.6836L1.41316 10.9492C1.50176 11.875 1.77563 12.6797 2.22492 13.418L1.04297 13.0156C1.31156 13.9336 1.75066 14.5273 2.49316 15.0078C2.07727 16.3086 1.88215 17.668 1.67262 19.0234L2.31949 19.1445C3.06973 10.8359 8.36391 5.53906 13.1487 3.19219L13.3913 3.87109C9.11273 6 5.78695 9.59375 4.04672 14.7734C4.68305 14.7773 5.30531 14.6914 5.88188 14.5273L6.05414 12.1484L6.51469 14.3164C6.89789 14.1602 7.24945 13.9727 7.56234 13.7539L6.83461 12.0547L7.98773 13.4141C8.26898 13.1641 8.50102 12.8828 8.6768 12.5742C9.74555 10.7187 10.8635 8.875 13.0643 7.33203L11.4577 6.69922L13.9221 6.78125C14.3229 6.55469 14.7448 6.27734 15.0647 6.01562L13.3174 5.85938L15.9436 5.17187C16.1475 4.94531 16.3373 4.70703 16.5096 4.46875C17.1178 3.61172 17.5291 2.71953 17.4307 1.9082C17.385 1.50234 17.167 1.1207 16.812 0.907031C16.7241 0.85625 16.6291 0.811328 16.5483 0.78125Z" fill="black"/>
</svg>
