<svg width="20" height="20" viewBox="0 0 20 20" fill="none" xmlns="http://www.w3.org/2000/svg">
<g clip-path="url(#clip0_270_48)">
<path d="M10.0761 0.669017C9.32127 0.676283 8.5467 0.893119 8.14396 1.31109L8.31951 2.2989L7.58373 2.30398L7.73045 2.77429L8.23201 4.3823C8.28928 5.60675 7.89514 6.58738 7.30123 7.50718C6.56475 8.64773 5.50486 9.66124 4.65818 10.7868C4.20662 11.387 4.04229 12.0866 4.13924 12.7621C4.23611 13.4375 4.5815 14.086 5.10779 14.6472C6.16033 15.7697 7.94467 16.563 10.1213 16.5477C12.1844 16.5334 13.9517 15.7139 15.0158 14.5824C15.5478 14.0166 15.9072 13.3677 16.0159 12.6904C16.1245 12.0131 15.966 11.3082 15.5022 10.7108H15.5024C14.6378 9.59702 13.56 8.59847 12.8036 7.46824C12.1825 6.54011 11.7679 5.54613 11.8229 4.28956L12.4177 2.27081L11.7302 2.2755L11.89 1.28499C11.5662 0.86429 10.831 0.661868 10.0761 0.669134L10.0761 0.669017ZM11.4396 3.00742L11.1824 3.87992C10.3035 4.29671 9.57002 4.26515 8.84748 3.90402L8.57404 3.02718L11.4396 3.00742ZM11.0972 4.70624C11.1468 5.93581 11.5938 6.97296 12.1969 7.87406C12.4847 8.30425 12.8064 8.70734 13.1373 9.09492C12.3265 8.87249 11.2081 8.72949 9.97912 8.72949C8.87861 8.72949 7.86729 8.84433 7.08549 9.02792C7.37779 8.66933 7.6601 8.29718 7.91451 7.9032C8.49861 6.99867 8.92623 5.96187 8.96014 4.7407C9.62896 4.96163 10.353 4.96429 11.0972 4.70624H11.0972ZM14.0495 10.1264C14.2165 10.3133 14.3809 10.4992 14.5384 10.6844C14.2544 10.8692 13.8962 11.0168 13.4723 11.1427C12.5563 11.4146 11.332 11.5744 9.97908 11.5744C8.62619 11.5744 7.40186 11.4145 6.48588 11.1427C6.14201 11.0406 5.84221 10.9239 5.58939 10.785C5.74533 10.5947 5.90873 10.4037 6.07471 10.2118C6.24549 10.2923 6.45373 10.3718 6.69357 10.4429C7.51248 10.6859 8.68478 10.8445 9.97912 10.8445C11.2735 10.8445 12.4458 10.6859 13.2647 10.4429C13.5893 10.3466 13.8567 10.2353 14.0496 10.1264L14.0495 10.1264ZM3.98584 14.2279C2.0267 14.7602 0.76123 15.5487 0.76123 16.4234C0.76123 18.0256 4.92225 19.3277 10.0462 19.3277C15.1702 19.3277 19.3313 18.0256 19.3313 16.4234C19.3313 15.5519 18.0766 14.7602 16.1295 14.2279C16.8026 14.5748 17.2044 14.9798 17.2044 15.4171C17.2044 16.6722 13.9892 17.704 10.0463 17.704C6.10334 17.704 2.91104 16.6721 2.91104 15.4171C2.91104 14.9775 3.30596 14.5759 3.98596 14.2279H3.98584Z" fill="black"/>
</g>
<defs>
<clipPath id="clip0_270_48">
<rect width="20" height="20" fill="white"/>
</clipPath>
</defs>
</svg>
