<svg width="87" height="86" viewBox="0 0 87 86" fill="none" xmlns="http://www.w3.org/2000/svg">
<path d="M22.7145 3.03904C17.198 3.03904 12.7049 8.73704 12.7049 15.7937C12.7049 19.3671 13.8939 22.5911 15.7438 24.9118C4.29972 26.6867 1.82722 42.6192 4.54781 57.0882H8.50566L8.33215 39.3937L11.4711 39.3626L11.6811 60.6417L13.1508 82.9609H21.0244V54.0216C18.4617 50.8784 16.7219 47.4118 16.586 43.133L16.5853 43.1162V43.0994C16.5594 40.4139 17.6734 37.1125 19.8135 34.27C21.9536 31.4276 25.2693 29.0663 29.5192 29.0142C32.417 28.9786 35.4751 29.8563 38.1424 31.4953C36.1048 28.1 33.2302 25.7546 29.5323 25.0587C31.4651 22.7273 32.7189 19.4578 32.7189 15.7941C32.7352 9.59553 28.5524 3.02157 22.7143 3.03904H22.7145ZM64.344 3.03904C58.8276 3.03904 54.3346 8.73704 54.3346 15.7937C54.3346 19.3671 55.5235 22.5911 57.3733 24.9118C53.1244 25.5707 50.1132 28.1826 48.1443 31.9454C50.9666 30.0178 54.3082 28.9754 57.4607 29.0141C61.7106 29.0663 65.0263 31.4276 67.1664 34.27C69.3065 37.1123 70.4205 40.4139 70.3946 43.0996V43.1164L70.3939 43.1332C70.2552 47.5015 68.4441 51.0233 65.7927 54.2186V82.9603H73.2363L75.1679 57.0882H75.173L75.3513 39.3623L78.4902 39.3934L78.3118 57.0882H82.4321C85.5165 42.2297 81.6386 27.0302 71.1622 25.0587C73.095 22.7273 74.3486 19.4578 74.3486 15.7941C74.365 9.59553 70.1821 3.02157 64.344 3.03904ZM29.5567 32.0372C26.3927 32.0761 23.9665 33.7808 22.229 36.0886C20.4946 38.3923 19.5961 41.3174 19.6097 43.0603C19.8157 49.213 24.0705 53.4463 29.8926 58.5208C34.3871 62.4382 39.6667 66.6705 43.4338 72.526L43.4937 72.419L43.5502 72.52C47.3172 66.6674 52.5948 62.4368 57.0878 58.5208C62.9099 53.4463 67.1647 49.213 67.3706 43.0603C67.3842 41.3174 66.4858 38.3923 64.7513 36.0886C63.0139 33.7808 60.5877 32.0761 57.4237 32.0372C52.6445 31.9785 46.7006 35.4449 44.9245 40.7752L43.4902 45.0794L42.0557 40.7752C40.2798 35.4449 34.3359 31.9785 29.5567 32.0372ZM24.1632 57.3986V82.9603H31.6067L32.9325 65.2036C31.2629 63.688 29.5567 62.2388 27.9062 60.8003C26.6085 59.6692 25.3459 58.5445 24.1632 57.3986ZM62.6544 57.5548C61.5186 58.6466 60.3129 59.7206 59.0742 60.8003C57.2876 62.3574 55.436 63.9282 53.6362 65.5812L54.7809 82.9609H62.6544V57.5548Z" fill="#AFAFAF"/>
</svg>
