<svg width="20" height="20" viewBox="0 0 20 20" fill="none" xmlns="http://www.w3.org/2000/svg">
<path d="M4.19128 1.01562C4.02933 1.01562 3.85535 1.91312 3.67511 2.69273L4.93242 6.63688L3.40695 3.9132C3.29242 4.47344 3.19546 5.03117 3.13343 5.58395L4.81999 7.85918L3.06851 6.42074C3.05152 6.85355 3.06265 7.2823 3.11062 7.70578L4.88855 9.13535L3.29128 8.61641C3.39121 8.96895 3.52331 9.32254 3.67456 9.67301L5.26906 10.7255L4.09464 10.557C4.63488 11.6099 5.2596 12.5968 5.60624 13.3893C5.70644 13.5897 5.91964 14.0437 6.03304 14.4896C6.18499 15.1027 5.85613 15.8935 5.20214 15.9866C5.68203 15.4283 5.71953 15.0683 5.63261 14.7157C5.11535 14.7082 4.88605 15.3374 4.88605 15.3374C4.88605 15.3374 4.39671 16.2543 5.49999 17.6565C6.60328 19.0587 8.12406 18.9836 8.12406 18.9836C8.12406 18.9836 8.03644 16.8334 8.08359 15.8602C8.13124 14.8771 8.40992 13.1352 8.40992 13.1352C8.40992 13.1352 7.62874 13.1389 6.75199 12.518C5.65171 11.7391 6.068 11.2438 5.78859 10.5229C5.22542 9.06969 5.60578 6.80633 5.60578 6.80633C5.60578 6.80633 5.18164 5.14266 4.90851 3.96172C4.68206 2.98305 4.3123 1.01562 4.19128 1.01562ZM15.8085 1.01562C15.6874 1.01562 15.3177 2.98305 15.0913 3.96172C14.8181 5.14266 14.3939 6.80633 14.3939 6.80633C14.3939 6.80633 14.7743 9.06969 14.2111 10.5229C13.9318 11.2438 14.348 11.7391 13.2478 12.5181C12.371 13.1389 11.5898 13.1353 11.5898 13.1353C11.5898 13.1353 11.8685 14.8771 11.9162 15.8602C11.9633 16.8334 11.8757 18.9837 11.8757 18.9837C11.8757 18.9837 13.3965 19.0587 14.4998 17.6565C15.603 16.2543 15.1137 15.3373 15.1137 15.3373C15.1137 15.3373 14.8844 14.7082 14.3672 14.7157C14.2802 15.0683 14.3177 15.4284 14.7977 15.9866C14.1436 15.8936 13.8148 15.1027 13.9667 14.4896C14.0801 14.0437 14.2933 13.5897 14.3935 13.3893C14.7402 12.5968 15.3649 11.6099 15.9052 10.557L14.7307 10.7255L16.3252 9.67301C16.4764 9.32254 16.6085 8.96895 16.7085 8.61641L15.1112 9.13535L16.8891 7.70578C16.9371 7.28234 16.9482 6.85355 16.9312 6.42074L15.1798 7.85918L16.8663 5.58395C16.8043 5.03121 16.7073 4.47344 16.5928 3.9132L15.0673 6.63688L16.3246 2.69281C16.1444 1.9132 15.9704 1.01562 15.8085 1.01562ZM9.9998 1.03371C9.24246 1.03371 7.49589 2.80723 6.54886 3.99184C6.27476 4.33477 5.93187 5.1568 5.93187 5.1568L6.29101 6.6134C6.29101 6.6134 6.24593 6.94355 6.18929 7.80441C6.14667 8.4525 6.14812 9.08578 6.14812 9.08578L8.20581 8.4259C8.36218 7.54523 8.65527 6.39125 8.99667 5.40988C9.27038 4.62312 9.9998 3.1218 9.9998 3.1218C9.9998 3.1218 10.7498 4.55363 11.0182 5.31348C11.3743 6.32133 11.6357 7.55887 11.7939 8.4259L13.8516 9.08578C13.8516 9.08578 13.853 8.4525 13.8104 7.80441C13.7537 6.94355 13.7087 6.6134 13.7087 6.6134L14.0678 5.15676C14.0678 5.15676 13.8299 4.40008 13.5977 4.08844C12.6564 2.82539 10.7571 1.03371 9.9998 1.03371ZM9.99988 4.04504C9.99988 4.04504 9.58117 5.14582 9.39949 6.02539C9.23156 6.83859 8.93472 8.62832 8.93472 8.62832C8.93472 8.62832 9.40281 9.09426 9.15667 9.34145C8.91054 9.58863 8.49093 9.11859 8.49093 9.11859L6.28644 9.78766L6.41679 10.3039L8.49093 11.0795C8.49093 11.0795 8.90718 10.6061 9.15667 10.8567C9.40621 11.1073 8.93472 11.7926 8.93472 11.7926C8.93472 11.7926 9.08624 12.42 9.1689 12.7319C9.30367 13.2405 9.59574 14.2517 9.59574 14.2517L9.9998 14.3637L10.4039 14.2517C10.4039 14.2517 10.6696 13.3063 10.7964 12.832C10.8888 12.4862 11.065 11.7926 11.065 11.7926C11.065 11.7926 10.5935 11.1073 10.843 10.8567C11.0925 10.6061 11.5087 11.0795 11.5087 11.0795L13.5829 10.3039L13.7132 9.78766L11.5087 9.11859C11.5087 9.11859 11.0891 9.58863 10.843 9.34145C10.5969 9.09426 11.065 8.62832 11.065 8.62832C11.065 8.62832 10.7702 6.97535 10.6002 6.05762C10.4343 5.16098 9.99988 4.04504 9.99988 4.04504ZM9.99988 9.37195C10.196 9.37195 10.3549 9.69117 10.3549 10.085C10.3549 10.4788 10.196 10.7981 9.99988 10.7981C9.80378 10.7981 9.6448 10.4788 9.6448 10.085C9.6448 9.69117 9.80378 9.37195 9.99988 9.37195Z" fill="black"/>
</svg>
