<svg width="87" height="86" viewBox="0 0 87 86" fill="none" xmlns="http://www.w3.org/2000/svg">
<path d="M58.974 3.49036L35.1644 6.90768L39.0593 13.4743C43.366 13.2089 46.8664 15.0999 48.4025 17.7575C49.234 19.1959 49.4483 21.034 48.5599 22.5446C47.9777 23.5339 46.9953 24.255 45.7464 24.7438L48.6701 29.6619L56.6594 28.4861L57.6776 28.3393L58.2184 29.2104C60.7376 33.2383 64.0026 34.517 65.2782 34.3125C65.9161 34.2103 66.1016 34.0739 66.244 33.3994C66.3864 32.7245 66.2272 31.3246 65.168 29.3631L64.1024 27.3945L66.3229 27.069L72.3119 26.1871L58.974 3.49036ZM32.0939 7.3486L16.8978 9.52715L17.2707 10.1621L36.2142 42.4856L51.3683 40.3597L41.9985 24.576L40.7966 22.5553L43.1219 22.2194C44.8889 21.9654 45.6129 21.3686 45.8564 20.9542C46.1003 20.5399 46.1059 20.0632 45.6834 19.3323C44.8386 17.8707 42.1062 16.1381 38.4292 16.6658L37.39 16.8178L36.8545 15.915L31.8524 7.49036L32.0939 7.3486ZM16.4989 15.0594L12.4834 31.0006L17.8006 39.9555L18.1836 40.596L17.9216 41.2993C16.5546 44.9958 17.5178 49.2719 18.9922 51.535C19.7292 52.6664 20.5622 53.1307 20.7979 53.1517C20.9154 53.1621 20.9368 53.1769 21.118 53.0257C21.2994 52.8745 21.5994 52.4952 21.8789 51.7815L23.0391 48.8266L24.6821 51.5403L31.4585 62.7052L47.3472 60.3691L51.5464 43.504L35.6053 45.74L34.5659 45.887L34.0358 44.9788L16.4989 15.0594ZM74.0282 29.1058L68.8262 29.8724C69.3922 31.4059 69.5782 32.796 69.3146 34.0454C68.9404 35.8175 67.4513 37.1414 65.7767 37.4098C62.6441 37.912 59.0361 35.8769 56.1554 31.7358L50.4024 32.5859L55.0736 40.449L55.4045 41.0053L55.2469 41.6302L50.7067 59.8756L56.6014 59.0091C57.929 53.8469 61.1357 50.9587 64.4539 50.8416C66.2311 50.7789 67.9804 51.5974 69.0521 53.0987C69.7984 54.1444 70.1943 55.4832 70.2489 57.004L74.5163 56.3741L79.0776 38.2705L75.3299 31.3261L74.0282 29.1056V29.1058ZM11.3968 35.3154L8.18945 48.034L25.4482 77.3496L28.7396 64.285L23.2806 55.2827C23.228 55.3311 23.1832 55.3892 23.1284 55.4349C22.3947 56.0466 21.4178 56.3558 20.5142 56.2747C18.7068 56.113 17.3955 54.8322 16.362 53.2462C14.4035 50.2399 13.3436 45.5499 14.7508 40.9687L11.3965 35.3156L11.3968 35.3154ZM64.564 53.9809C62.9347 54.0384 60.3483 55.7589 59.4045 60.7047L59.1945 61.8021L58.0921 61.9646L31.5845 65.8541L27.5586 81.8217L27.3856 82.4987L69.451 76.4627L73.6818 59.6709L68.8107 60.3898L66.6901 60.6997L67.0311 58.5843C67.323 56.787 66.9831 55.6085 66.4958 54.9259C66.0085 54.2433 65.3788 53.9524 64.5641 53.9811L64.564 53.9809Z" fill="#AFAFAF"/>
</svg>
