<svg width="20" height="20" viewBox="0 0 20 20" fill="none" xmlns="http://www.w3.org/2000/svg">
<path d="M12.4848 0.806885C12.9982 2.1004 12.9982 2.10044 12.2715 3.28735C13.565 2.77388 13.5651 2.77384 14.752 3.50052C14.2385 2.207 14.2384 2.20704 14.9651 1.02013C13.6716 1.53364 13.6717 1.5336 12.4848 0.806885ZM4.415 1.48528C3.95375 2.30716 3.95375 2.30716 3.01953 2.43126C3.84141 2.89255 3.84141 2.89251 3.96551 3.82677C4.42676 3.00489 4.42676 3.00489 5.36098 2.88079C4.5391 2.41954 4.5391 2.41954 4.415 1.48528ZM7.40523 3.67997C7.36805 5.65606 7.36812 5.65606 5.76496 6.812C7.74102 6.84911 7.74105 6.84911 8.89699 8.45224C8.9341 6.47614 8.9341 6.47614 10.5372 5.32021C8.56113 5.2831 8.56113 5.2831 7.4052 3.67997H7.40523ZM14.8731 5.86298C14.8713 6.80544 14.8712 6.80536 14.1162 7.36938C15.0586 7.37122 15.0586 7.37118 15.6227 8.12622C15.6245 7.1838 15.6245 7.18384 16.3795 6.61981C15.4371 6.61798 15.4371 6.61802 14.8731 5.86298ZM7.68223 9.13954C7.63673 9.14046 7.59125 9.1422 7.54582 9.14478C6.81961 9.18634 5.91035 9.47353 4.52062 10.0259L2.96922 16.9369C6.03512 16.127 8.16336 16.0811 9.64852 16.7566V9.67626C8.94242 9.332 8.40672 9.15286 7.82402 9.13966C7.77678 9.13869 7.72951 9.13866 7.68227 9.13958L7.68223 9.13954ZM12.4746 9.58563C12.3638 9.58465 12.2529 9.58593 12.1421 9.58946C11.6417 9.60575 11.0625 9.67599 10.3514 9.7661V16.6854C12.0532 16.3798 14.5253 16.5214 17.0407 16.981L15.4868 10.0592C14.0843 9.73228 13.2763 9.59399 12.4746 9.58567V9.58563ZM12.5641 10.2477C13.3019 10.2557 14.0036 10.3559 14.662 10.4438L14.8353 11.0893C13.9064 10.9428 12.2585 10.8976 11.2233 11.051L11.1985 10.3555C11.6656 10.2713 12.1213 10.243 12.5641 10.2477ZM2.77957 10.4297L2.36484 12.2267H3.30602L3.70937 10.4297H2.77957ZM16.2905 10.4297L17.843 17.345L17.9304 17.7345L18.8129 17.7286L17.217 10.4297H16.2905ZM13.2102 12.6883C13.874 12.6893 14.5254 12.7192 15.13 12.7751L15.2676 13.446C13.9924 13.3257 12.4325 13.3331 11.2444 13.446L11.2167 12.7751C11.8703 12.7152 12.5464 12.6873 13.2102 12.6883ZM2.20266 12.9297L1.93219 14.1017H2.88508L3.14816 12.9297H2.20266ZM12.9221 13.9939C13.104 13.9947 13.2927 13.9972 13.497 14.0018L13.5968 14.6854C12.8167 14.667 11.7563 14.7072 11.2636 14.7264L11.2363 14.0238C11.8927 14.0046 12.3765 13.9915 12.9221 13.9939ZM14.5423 14.0114C14.8652 14.013 15.1945 14.0244 15.4845 14.0141L15.5853 14.707C15.2473 14.6949 14.6138 14.6746 14.3328 14.6874L14.2231 14.0142C14.3295 14.0116 14.4359 14.0106 14.5423 14.0114ZM1.77 14.8047L1.06746 17.8488L2.04539 17.8421L2.72723 14.8047H1.77ZM13.6123 15.2675C14.3783 15.2671 15.1225 15.2977 15.8174 15.368L15.9344 16.18C14.5944 16.0142 12.5846 15.8793 11.2821 16.0533L11.2766 15.3532C12.0586 15.2993 12.8464 15.2679 13.6123 15.2675ZM7.1043 16.9882C5.92805 16.9917 4.45133 17.2324 2.59617 17.7601L2.31414 17.8403L9.64848 17.7907V17.5427C9.01426 17.1831 8.18676 16.985 7.10434 16.9882H7.1043ZM12.3547 17.2294C11.5879 17.232 10.905 17.2856 10.3514 17.3927V17.7859L17.2887 17.7389C15.5574 17.4016 13.8068 17.2244 12.3547 17.2294H12.3547ZM1.01562 18.5548V19.2579H18.9844V18.5548H1.01562Z" fill="black"/>
</svg>
