<svg width="23" height="23" viewBox="0 0 23 23" fill="none" xmlns="http://www.w3.org/2000/svg">
<g clip-path="url(#clip0_253_96)">
<path d="M13.4918 2.47964L12.3533 3.61815L12.3534 6.62448L13.4918 5.48604L13.4918 2.47962L13.4918 2.47964ZM11.7693 1.38959L11.3098 1.38345L11.3133 7.00928C11.4643 6.9815 11.6165 6.96039 11.7693 6.94602L11.7693 1.38959ZM9.58716 2.47973L9.58718 5.48602L10.7291 6.62791L10.7272 3.61976L9.58716 2.47973ZM14.4474 8.39921C13.8982 7.85854 13.081 7.49601 12.0152 7.50141C10.4694 7.50925 7.96179 9.07014 8.09207 10.6244C8.71316 9.66984 9.67524 8.77669 11.3142 8.56679L11.3142 8.5683C11.3464 8.56315 11.378 8.55891 11.4096 8.55488C11.4997 8.5452 11.5902 8.53766 11.6807 8.53228C11.7104 8.53113 11.74 8.53 11.7693 8.52963L11.7693 8.52684C11.8297 8.52398 11.8902 8.52202 11.9506 8.52096C13.919 8.48623 14.6814 11.0911 12.4798 11.9666L12.4862 11.973C12.275 12.0569 12.0366 12.1247 11.7693 12.1727L11.7693 9.10963C11.6165 9.11104 11.4642 9.12759 11.3146 9.15904L11.3165 12.2649C10.785 12.4023 10.3295 12.6352 9.95634 12.9273L9.95053 12.9215C9.4972 13.2756 9.17021 13.7171 8.97463 14.1808C8.83515 14.5021 8.75881 14.8338 8.75021 15.1541L8.75962 15.1516C8.75295 15.4227 8.79233 15.6861 8.87948 15.9285C9.65093 18.074 10.5173 19.9796 11.525 21.9552L11.531 21.9416L11.5382 21.9586L11.7754 21.394C12.8885 18.8974 13.9306 16.476 15.2417 14.1087L15.2416 14.1088C14.2796 15.0823 13.2992 15.6507 12.354 15.9424L12.3484 17.2808C12.5493 17.2407 12.7469 17.1855 12.9395 17.1154L11.5382 20.4507L10.1264 17.0907C10.3305 17.1637 10.5336 17.2213 10.7356 17.2639L10.7359 15.9708C10.0654 15.5838 9.89272 14.5927 10.5188 13.8575C10.5213 13.8546 10.5238 13.8517 10.5262 13.8487C10.5432 13.8291 10.561 13.8097 10.5791 13.7904C10.5836 13.7857 10.5879 13.7808 10.5925 13.776C10.6143 13.7533 10.6368 13.7308 10.6603 13.7087C10.8574 13.523 11.0718 13.3613 11.3172 13.2214L11.3197 17.0639L11.3196 17.3457C11.4693 17.3559 11.6194 17.3575 11.7693 17.3507L11.7694 16.0899V13.0034C12.1404 12.8529 12.5775 12.7368 13.1122 12.6505C14.1275 12.4867 14.7688 11.9467 15.0655 11.2745C15.0732 11.2573 15.0807 11.24 15.0879 11.2226L15.0883 11.2218C15.4426 10.3782 15.2664 9.33887 14.6092 8.57243C14.5581 8.51294 14.5043 8.45509 14.4474 8.39914L14.4474 8.39921Z" fill="black"/>
</g>
<defs>
<clipPath id="clip0_253_96">
<rect width="16" height="16" fill="white" transform="translate(11.5327) rotate(45)"/>
</clipPath>
</defs>
</svg>
