<svg width="122" height="33" viewBox="0 0 122 33" fill="none" xmlns="http://www.w3.org/2000/svg">
<path d="M0.126699 17.8399C0.192953 18.1044 0.38225 18.5674 0.562082 18.8791L0.883887 19.4365L1.02586 19.2098C1.35713 18.7091 1.75465 18.3312 2.20897 18.095C2.68221 17.8399 2.72007 17.8399 4.3007 17.8588C5.18093 17.8682 6.31671 17.9344 6.82781 18.0005C7.67018 18.1233 7.75536 18.1139 7.94466 17.9627C8.22861 17.736 8.38951 17.7454 8.55988 18.0194C8.68292 18.1989 8.81543 18.2556 9.25081 18.2839C9.72405 18.3312 9.82817 18.3028 10.0648 18.1044C10.2635 17.9438 10.415 17.8871 10.5854 17.9155C11.6549 18.1328 12.9137 18.2556 14.5701 18.3123C15.6396 18.3406 17.1256 18.4351 17.8827 18.5201C18.6399 18.6052 19.965 18.6713 20.8358 18.6807C21.716 18.6807 22.4259 18.6807 22.4259 18.6807C22.4259 18.6902 22.4732 19.7294 22.5205 21.0049C22.6152 23.4423 22.7193 24.6611 22.9559 26.2955C23.2588 28.289 23.8835 30.8398 24.0349 30.6698C24.0728 30.632 24.404 29.9234 24.7826 29.092L25.4546 27.5993L25.1328 27.2214C24.3946 26.3711 23.7983 24.6894 23.5711 22.8471C23.5143 22.3748 23.4386 21.2033 23.4008 20.2396L23.344 18.4823L23.9308 18.4257C24.5176 18.3595 25.1801 18.5296 26.4295 19.0492C26.7608 19.1909 27.8871 19.2004 38.9704 19.1153C58.4018 18.9736 77.5397 18.8413 95.1632 18.7374C104.174 18.6807 112.314 18.5957 113.26 18.5485C115.106 18.4445 116.554 18.2178 117.832 17.8399C118.797 17.5565 121.05 16.7251 121.05 16.6589C121.05 16.5739 118.437 15.6386 117.5 15.3835C116.251 15.0339 115.096 14.8733 113.213 14.7694C112.295 14.7222 104.174 14.6371 95.1632 14.5805C77.5491 14.4765 58.4301 14.3443 38.9704 14.2026C27.8871 14.1175 26.7608 14.127 26.4295 14.2687C25.1801 14.7883 24.5176 14.9584 23.9308 14.8922L23.344 14.8356L23.4008 13.0783C23.4386 12.1146 23.5143 10.9337 23.5711 10.4707C23.7983 8.62845 24.3946 6.94677 25.1139 6.11538L25.4546 5.71858L24.7826 4.22585C24.404 3.39446 24.0728 2.68589 24.0349 2.6481C23.8835 2.47804 23.2588 5.0289 22.9559 7.02235C22.7193 8.6568 22.6152 9.87554 22.5205 12.313C22.4732 13.5885 22.4259 14.6277 22.4259 14.6371C22.4259 14.6466 21.7728 14.6466 20.9778 14.6371C20.1922 14.6371 18.8766 14.7033 18.072 14.7883C17.2675 14.8733 15.8383 14.9773 14.9013 15.0056C13.2828 15.0623 11.5413 15.2418 10.7557 15.4213C10.4339 15.4969 10.3582 15.478 10.0932 15.2418C9.8187 15.0056 9.73352 14.9867 9.26027 15.034C8.80596 15.0717 8.70185 15.1095 8.61667 15.2985C8.49362 15.563 8.18128 15.6008 7.92573 15.3646C7.77429 15.2229 7.66072 15.2229 6.82781 15.3268C6.32617 15.393 5.2945 15.4685 4.53732 15.4969C2.55916 15.5725 1.89663 15.3457 1.12997 14.2781L0.883887 13.938L0.581012 14.4388C0.0320509 15.3552 -0.147781 16.7062 0.126699 17.8399Z" fill="black"/>
<mask id="path-2-outside-1_109_5" maskUnits="userSpaceOnUse" x="30" y="5" width="83" height="24" fill="black">
<rect fill="white" x="30" y="5" width="83" height="24"/>
<path d="M37.16 22.24C37.0133 22.24 36.8067 22.2267 36.54 22.2C36.2867 22.1733 36.08 22.14 35.92 22.1L32.04 10.16L32.82 10.9L31.04 10.46C31.04 10.2067 31.0667 9.98667 31.12 9.8C31.1867 9.6 31.3 9.39333 31.46 9.18H36.8C36.8 9.51333 36.7733 9.78667 36.72 10C36.6667 10.2 36.5867 10.3133 36.48 10.34L34.86 10.84L35.14 10.06L38.16 19.32H37.76L40.5 10.54H42.22L45.34 19.32H45L47.78 10.16V10.88L45.74 10.46C45.74 10.2067 45.7667 9.98667 45.82 9.8C45.8733 9.6 45.98 9.39333 46.14 9.18H50.84C50.84 9.51333 50.8133 9.78667 50.76 10C50.7067 10.2 50.6267 10.3133 50.52 10.34L48.9 10.82L49.54 10.06L46.06 21.56C46.0067 21.7333 45.8733 21.8733 45.66 21.98C45.46 22.0733 45.24 22.14 45 22.18C44.7733 22.22 44.5867 22.24 44.44 22.24C44.2933 22.24 44.0867 22.2267 43.82 22.2C43.5667 22.1733 43.36 22.14 43.2 22.1L40.28 13.84H41.18L38.78 21.56C38.7267 21.7333 38.5933 21.8733 38.38 21.98C38.18 22.0733 37.96 22.14 37.72 22.18C37.4933 22.22 37.3067 22.24 37.16 22.24ZM51.4428 22C51.4428 21.3067 51.5495 20.92 51.7628 20.84L52.9028 20.32L52.6828 20.66V8.78L52.9028 9.1L51.7428 8.76C51.5428 8.69333 51.4428 8.31333 51.4428 7.62C52.1361 7.51333 52.6828 7.44 53.0828 7.4C53.4828 7.34667 53.8095 7.32 54.0628 7.32C54.5695 7.32 54.9361 7.42667 55.1628 7.64C55.3895 7.84 55.5028 8.18 55.5028 8.66V14.82L55.3428 14.62H55.6628C56.2628 14.0333 56.9028 13.58 57.5828 13.26C58.2628 12.9267 58.9028 12.76 59.5028 12.76C61.0228 12.76 61.7828 13.7867 61.7828 15.84V20.56L61.5628 20.26L63.0228 20.72C63.0228 20.9867 62.9961 21.2133 62.9428 21.4C62.8895 21.5867 62.7961 21.7867 62.6628 22H57.8628C57.8628 21.3067 57.9695 20.92 58.1828 20.84L59.0028 20.5L58.8028 20.84V16.26C58.8028 15.2733 58.4361 14.78 57.7028 14.78C57.3961 14.78 57.0961 14.8467 56.8028 14.98C56.5228 15.1 56.2761 15.2467 56.0628 15.42C55.8628 15.58 55.7095 15.72 55.6028 15.84L55.6628 15.56V20.72L55.4228 20.42L56.5828 20.72C56.5828 20.9867 56.5561 21.2133 56.5028 21.4C56.4495 21.5867 56.3495 21.7867 56.2028 22H51.4428ZM66.3414 22.24C65.7281 22.24 65.2214 22.0467 64.8214 21.66C64.4214 21.2733 64.2214 20.7733 64.2214 20.16C64.2214 19.4133 64.4747 18.7933 64.9814 18.3C65.4881 17.7933 66.2281 17.4267 67.2014 17.2L69.8614 16.6L69.6214 16.94V15.7C69.6214 15.02 69.5347 14.54 69.3614 14.26C69.1881 13.9667 68.8947 13.82 68.4814 13.82C68.0014 13.82 67.6347 13.9933 67.3814 14.34C67.1414 14.6733 67.0147 15.1867 67.0014 15.88C66.9081 16 66.7614 16.0933 66.5614 16.16C66.3614 16.2267 66.1481 16.26 65.9214 16.26C65.5347 16.26 65.2347 16.1667 65.0214 15.98C64.8081 15.78 64.7014 15.52 64.7014 15.2C64.7014 14.72 64.8814 14.3 65.2414 13.94C65.6147 13.58 66.1214 13.2933 66.7614 13.08C67.4014 12.8667 68.1147 12.76 68.9014 12.76C70.1014 12.76 71.0147 13.0267 71.6414 13.56C72.2814 14.0933 72.6014 14.88 72.6014 15.92V19.9C72.6014 20.14 72.6481 20.32 72.7414 20.44C72.8347 20.5467 72.9881 20.6 73.2014 20.6C73.3347 20.6 73.4681 20.5733 73.6014 20.52C73.7347 20.4667 73.8481 20.42 73.9414 20.38L74.1614 21.26C73.8414 21.5533 73.4481 21.7933 72.9814 21.98C72.5281 22.1533 72.1014 22.24 71.7014 22.24C71.1014 22.24 70.6347 22.0867 70.3014 21.78C69.9681 21.4733 69.8014 21.0467 69.8014 20.5H69.6414C69.2281 21.0333 68.7214 21.46 68.1214 21.78C67.5214 22.0867 66.9281 22.24 66.3414 22.24ZM67.8614 20.54C68.1814 20.54 68.5347 20.4333 68.9214 20.22C69.3214 20.0067 69.6481 19.74 69.9014 19.42L69.6414 20.02V17.58L69.9814 17.64L68.0814 18.1C67.6814 18.18 67.3747 18.34 67.1614 18.58C66.9481 18.82 66.8414 19.1133 66.8414 19.46C66.8414 19.78 66.9347 20.04 67.1214 20.24C67.3081 20.44 67.5547 20.54 67.8614 20.54ZM75.2022 22C75.2022 21.3067 75.3089 20.92 75.5222 20.84L76.6622 20.32L76.4422 20.66V14.44L76.6822 14.76L75.5222 14.42C75.4289 14.3933 75.3489 14.28 75.2822 14.08C75.2289 13.88 75.2022 13.6133 75.2022 13.28C75.9355 13.16 76.4955 13.08 76.8822 13.04C77.2689 13 77.5955 12.98 77.8622 12.98C78.3955 12.98 78.7622 13.0867 78.9622 13.3C79.1755 13.5 79.2822 13.8733 79.2822 14.42V15.02L79.0422 14.78H79.4022C79.6955 14.1667 80.0755 13.68 80.5422 13.32C81.0089 12.9467 81.4889 12.76 81.9822 12.76C82.5689 12.76 83.0022 12.8933 83.2822 13.16C83.5755 13.4267 83.7222 13.8067 83.7222 14.3C83.7222 14.6867 83.5822 15.02 83.3022 15.3C83.0355 15.58 82.7089 15.72 82.3222 15.72C82.1622 15.4 81.9889 15.18 81.8022 15.06C81.6155 14.9267 81.3889 14.86 81.1222 14.86C80.8289 14.86 80.5089 14.9667 80.1622 15.18C79.8155 15.3933 79.5222 15.6733 79.2822 16.02L79.4422 15.48V20.72L79.1422 20.24L81.0222 20.72C81.0222 20.9867 80.9955 21.2133 80.9422 21.4C80.8889 21.5867 80.7889 21.7867 80.6422 22H75.2022ZM84.3837 22C84.3837 21.3067 84.4904 20.92 84.7037 20.84L85.8437 20.32L85.6237 20.64V14.44L85.8637 14.76L84.7037 14.42C84.4904 14.3533 84.3837 13.9733 84.3837 13.28C85.0904 13.1733 85.6437 13.1 86.0437 13.06C86.4437 13.0067 86.7771 12.98 87.0437 12.98C87.5371 12.98 87.8971 13.0867 88.1237 13.3C88.3504 13.5 88.4637 13.84 88.4637 14.32V14.66L88.3838 14.62H88.6237C89.2104 14.0333 89.8304 13.58 90.4838 13.26C91.1504 12.9267 91.7771 12.76 92.3638 12.76C93.1104 12.76 93.6571 13.02 94.0038 13.54C94.3504 14.0467 94.5238 14.82 94.5238 15.86V20.72L94.2838 20.42L95.4638 20.72C95.4638 20.9867 95.4304 21.2133 95.3638 21.4C95.3104 21.5867 95.2171 21.7867 95.0838 22H90.6037C90.6037 21.3067 90.7104 20.92 90.9237 20.84L91.7437 20.5L91.5237 20.82V16.26C91.5237 15.2733 91.1904 14.78 90.5238 14.78C90.2171 14.78 89.9304 14.8467 89.6637 14.98C89.3971 15.1 89.1637 15.2467 88.9638 15.42C88.7771 15.5933 88.6304 15.7467 88.5238 15.88L88.6237 15.54V20.72L88.3838 20.42L89.5638 20.72C89.5638 20.9867 89.5304 21.2133 89.4638 21.4C89.4104 21.5867 89.3104 21.7867 89.1637 22H84.3837ZM96.5038 22C96.5038 21.3067 96.6104 20.92 96.8238 20.84L97.6438 20.5L97.4238 20.82V16.26C97.4238 15.2733 97.0904 14.78 96.4237 14.78C96.0104 14.78 95.6304 14.9 95.2838 15.14C94.9371 15.38 94.6704 15.6067 94.4837 15.82L94.1838 14.62H94.5038C95.1038 14.0333 95.7304 13.58 96.3838 13.26C97.0504 12.9267 97.6771 12.76 98.2638 12.76C99.0104 12.76 99.5571 13.02 99.9038 13.54C100.25 14.0467 100.424 14.8133 100.424 15.84V20.56L100.204 20.26L101.664 20.72C101.664 20.9867 101.637 21.2133 101.584 21.4C101.53 21.5867 101.43 21.7867 101.284 22H96.5038ZM103.196 27.4C102.742 27.4 102.369 27.28 102.076 27.04C101.782 26.8 101.636 26.4733 101.636 26.06C101.636 25.9267 101.656 25.7667 101.696 25.58C101.749 25.3933 101.822 25.2333 101.916 25.1H102.276C102.929 25.1 103.462 25.0467 103.876 24.94C104.302 24.8333 104.649 24.66 104.916 24.42C105.196 24.1933 105.436 23.8733 105.636 23.46C105.836 23.06 106.036 22.56 106.236 21.96L106.176 23.22L102.676 14.46L103.176 14.84L101.656 14.42C101.656 14.14 101.682 13.9067 101.736 13.72C101.802 13.5333 101.909 13.34 102.056 13.14H106.896C106.896 13.8867 106.789 14.3 106.576 14.38L105.316 14.8L105.696 14.34L107.876 19.84L107.076 19.86L109.216 14.38L109.376 14.78L108.096 14.42C108.096 14.0333 108.116 13.7533 108.156 13.58C108.209 13.4067 108.309 13.26 108.456 13.14H111.836C111.836 13.5133 111.809 13.7933 111.756 13.98C111.702 14.1533 111.622 14.26 111.516 14.3L110.376 14.76L110.836 14.34L107.676 22.48C107.116 23.9733 106.449 25.1667 105.676 26.06C104.902 26.9533 104.076 27.4 103.196 27.4Z"/>
</mask>
<path d="M37.16 22.24C37.0133 22.24 36.8067 22.2267 36.54 22.2C36.2867 22.1733 36.08 22.14 35.92 22.1L32.04 10.16L32.82 10.9L31.04 10.46C31.04 10.2067 31.0667 9.98667 31.12 9.8C31.1867 9.6 31.3 9.39333 31.46 9.18H36.8C36.8 9.51333 36.7733 9.78667 36.72 10C36.6667 10.2 36.5867 10.3133 36.48 10.34L34.86 10.84L35.14 10.06L38.16 19.32H37.76L40.5 10.54H42.22L45.34 19.32H45L47.78 10.16V10.88L45.74 10.46C45.74 10.2067 45.7667 9.98667 45.82 9.8C45.8733 9.6 45.98 9.39333 46.14 9.18H50.84C50.84 9.51333 50.8133 9.78667 50.76 10C50.7067 10.2 50.6267 10.3133 50.52 10.34L48.9 10.82L49.54 10.06L46.06 21.56C46.0067 21.7333 45.8733 21.8733 45.66 21.98C45.46 22.0733 45.24 22.14 45 22.18C44.7733 22.22 44.5867 22.24 44.44 22.24C44.2933 22.24 44.0867 22.2267 43.82 22.2C43.5667 22.1733 43.36 22.14 43.2 22.1L40.28 13.84H41.18L38.78 21.56C38.7267 21.7333 38.5933 21.8733 38.38 21.98C38.18 22.0733 37.96 22.14 37.72 22.18C37.4933 22.22 37.3067 22.24 37.16 22.24ZM51.4428 22C51.4428 21.3067 51.5495 20.92 51.7628 20.84L52.9028 20.32L52.6828 20.66V8.78L52.9028 9.1L51.7428 8.76C51.5428 8.69333 51.4428 8.31333 51.4428 7.62C52.1361 7.51333 52.6828 7.44 53.0828 7.4C53.4828 7.34667 53.8095 7.32 54.0628 7.32C54.5695 7.32 54.9361 7.42667 55.1628 7.64C55.3895 7.84 55.5028 8.18 55.5028 8.66V14.82L55.3428 14.62H55.6628C56.2628 14.0333 56.9028 13.58 57.5828 13.26C58.2628 12.9267 58.9028 12.76 59.5028 12.76C61.0228 12.76 61.7828 13.7867 61.7828 15.84V20.56L61.5628 20.26L63.0228 20.72C63.0228 20.9867 62.9961 21.2133 62.9428 21.4C62.8895 21.5867 62.7961 21.7867 62.6628 22H57.8628C57.8628 21.3067 57.9695 20.92 58.1828 20.84L59.0028 20.5L58.8028 20.84V16.26C58.8028 15.2733 58.4361 14.78 57.7028 14.78C57.3961 14.78 57.0961 14.8467 56.8028 14.98C56.5228 15.1 56.2761 15.2467 56.0628 15.42C55.8628 15.58 55.7095 15.72 55.6028 15.84L55.6628 15.56V20.72L55.4228 20.42L56.5828 20.72C56.5828 20.9867 56.5561 21.2133 56.5028 21.4C56.4495 21.5867 56.3495 21.7867 56.2028 22H51.4428ZM66.3414 22.24C65.7281 22.24 65.2214 22.0467 64.8214 21.66C64.4214 21.2733 64.2214 20.7733 64.2214 20.16C64.2214 19.4133 64.4747 18.7933 64.9814 18.3C65.4881 17.7933 66.2281 17.4267 67.2014 17.2L69.8614 16.6L69.6214 16.94V15.7C69.6214 15.02 69.5347 14.54 69.3614 14.26C69.1881 13.9667 68.8947 13.82 68.4814 13.82C68.0014 13.82 67.6347 13.9933 67.3814 14.34C67.1414 14.6733 67.0147 15.1867 67.0014 15.88C66.9081 16 66.7614 16.0933 66.5614 16.16C66.3614 16.2267 66.1481 16.26 65.9214 16.26C65.5347 16.26 65.2347 16.1667 65.0214 15.98C64.8081 15.78 64.7014 15.52 64.7014 15.2C64.7014 14.72 64.8814 14.3 65.2414 13.94C65.6147 13.58 66.1214 13.2933 66.7614 13.08C67.4014 12.8667 68.1147 12.76 68.9014 12.76C70.1014 12.76 71.0147 13.0267 71.6414 13.56C72.2814 14.0933 72.6014 14.88 72.6014 15.92V19.9C72.6014 20.14 72.6481 20.32 72.7414 20.44C72.8347 20.5467 72.9881 20.6 73.2014 20.6C73.3347 20.6 73.4681 20.5733 73.6014 20.52C73.7347 20.4667 73.8481 20.42 73.9414 20.38L74.1614 21.26C73.8414 21.5533 73.4481 21.7933 72.9814 21.98C72.5281 22.1533 72.1014 22.24 71.7014 22.24C71.1014 22.24 70.6347 22.0867 70.3014 21.78C69.9681 21.4733 69.8014 21.0467 69.8014 20.5H69.6414C69.2281 21.0333 68.7214 21.46 68.1214 21.78C67.5214 22.0867 66.9281 22.24 66.3414 22.24ZM67.8614 20.54C68.1814 20.54 68.5347 20.4333 68.9214 20.22C69.3214 20.0067 69.6481 19.74 69.9014 19.42L69.6414 20.02V17.58L69.9814 17.64L68.0814 18.1C67.6814 18.18 67.3747 18.34 67.1614 18.58C66.9481 18.82 66.8414 19.1133 66.8414 19.46C66.8414 19.78 66.9347 20.04 67.1214 20.24C67.3081 20.44 67.5547 20.54 67.8614 20.54ZM75.2022 22C75.2022 21.3067 75.3089 20.92 75.5222 20.84L76.6622 20.32L76.4422 20.66V14.44L76.6822 14.76L75.5222 14.42C75.4289 14.3933 75.3489 14.28 75.2822 14.08C75.2289 13.88 75.2022 13.6133 75.2022 13.28C75.9355 13.16 76.4955 13.08 76.8822 13.04C77.2689 13 77.5955 12.98 77.8622 12.98C78.3955 12.98 78.7622 13.0867 78.9622 13.3C79.1755 13.5 79.2822 13.8733 79.2822 14.42V15.02L79.0422 14.78H79.4022C79.6955 14.1667 80.0755 13.68 80.5422 13.32C81.0089 12.9467 81.4889 12.76 81.9822 12.76C82.5689 12.76 83.0022 12.8933 83.2822 13.16C83.5755 13.4267 83.7222 13.8067 83.7222 14.3C83.7222 14.6867 83.5822 15.02 83.3022 15.3C83.0355 15.58 82.7089 15.72 82.3222 15.72C82.1622 15.4 81.9889 15.18 81.8022 15.06C81.6155 14.9267 81.3889 14.86 81.1222 14.86C80.8289 14.86 80.5089 14.9667 80.1622 15.18C79.8155 15.3933 79.5222 15.6733 79.2822 16.02L79.4422 15.48V20.72L79.1422 20.24L81.0222 20.72C81.0222 20.9867 80.9955 21.2133 80.9422 21.4C80.8889 21.5867 80.7889 21.7867 80.6422 22H75.2022ZM84.3837 22C84.3837 21.3067 84.4904 20.92 84.7037 20.84L85.8437 20.32L85.6237 20.64V14.44L85.8637 14.76L84.7037 14.42C84.4904 14.3533 84.3837 13.9733 84.3837 13.28C85.0904 13.1733 85.6437 13.1 86.0437 13.06C86.4437 13.0067 86.7771 12.98 87.0437 12.98C87.5371 12.98 87.8971 13.0867 88.1237 13.3C88.3504 13.5 88.4637 13.84 88.4637 14.32V14.66L88.3838 14.62H88.6237C89.2104 14.0333 89.8304 13.58 90.4838 13.26C91.1504 12.9267 91.7771 12.76 92.3638 12.76C93.1104 12.76 93.6571 13.02 94.0038 13.54C94.3504 14.0467 94.5238 14.82 94.5238 15.86V20.72L94.2838 20.42L95.4638 20.72C95.4638 20.9867 95.4304 21.2133 95.3638 21.4C95.3104 21.5867 95.2171 21.7867 95.0838 22H90.6037C90.6037 21.3067 90.7104 20.92 90.9237 20.84L91.7437 20.5L91.5237 20.82V16.26C91.5237 15.2733 91.1904 14.78 90.5238 14.78C90.2171 14.78 89.9304 14.8467 89.6637 14.98C89.3971 15.1 89.1637 15.2467 88.9638 15.42C88.7771 15.5933 88.6304 15.7467 88.5238 15.88L88.6237 15.54V20.72L88.3838 20.42L89.5638 20.72C89.5638 20.9867 89.5304 21.2133 89.4638 21.4C89.4104 21.5867 89.3104 21.7867 89.1637 22H84.3837ZM96.5038 22C96.5038 21.3067 96.6104 20.92 96.8238 20.84L97.6438 20.5L97.4238 20.82V16.26C97.4238 15.2733 97.0904 14.78 96.4237 14.78C96.0104 14.78 95.6304 14.9 95.2838 15.14C94.9371 15.38 94.6704 15.6067 94.4837 15.82L94.1838 14.62H94.5038C95.1038 14.0333 95.7304 13.58 96.3838 13.26C97.0504 12.9267 97.6771 12.76 98.2638 12.76C99.0104 12.76 99.5571 13.02 99.9038 13.54C100.25 14.0467 100.424 14.8133 100.424 15.84V20.56L100.204 20.26L101.664 20.72C101.664 20.9867 101.637 21.2133 101.584 21.4C101.53 21.5867 101.43 21.7867 101.284 22H96.5038ZM103.196 27.4C102.742 27.4 102.369 27.28 102.076 27.04C101.782 26.8 101.636 26.4733 101.636 26.06C101.636 25.9267 101.656 25.7667 101.696 25.58C101.749 25.3933 101.822 25.2333 101.916 25.1H102.276C102.929 25.1 103.462 25.0467 103.876 24.94C104.302 24.8333 104.649 24.66 104.916 24.42C105.196 24.1933 105.436 23.8733 105.636 23.46C105.836 23.06 106.036 22.56 106.236 21.96L106.176 23.22L102.676 14.46L103.176 14.84L101.656 14.42C101.656 14.14 101.682 13.9067 101.736 13.72C101.802 13.5333 101.909 13.34 102.056 13.14H106.896C106.896 13.8867 106.789 14.3 106.576 14.38L105.316 14.8L105.696 14.34L107.876 19.84L107.076 19.86L109.216 14.38L109.376 14.78L108.096 14.42C108.096 14.0333 108.116 13.7533 108.156 13.58C108.209 13.4067 108.309 13.26 108.456 13.14H111.836C111.836 13.5133 111.809 13.7933 111.756 13.98C111.702 14.1533 111.622 14.26 111.516 14.3L110.376 14.76L110.836 14.34L107.676 22.48C107.116 23.9733 106.449 25.1667 105.676 26.06C104.902 26.9533 104.076 27.4 103.196 27.4Z" fill="#E98C00"/>
<path d="M36.54 22.2L36.4353 23.1945L36.4405 23.195L36.54 22.2ZM35.92 22.1L34.969 22.4091L35.1401 22.9358L35.6775 23.0701L35.92 22.1ZM32.04 10.16L32.7283 9.43454L31.089 10.469L32.04 10.16ZM32.82 10.9L32.58 11.8708L36.2533 12.7788L33.5083 10.1745L32.82 10.9ZM31.04 10.46H30.04V11.2429L30.8 11.4308L31.04 10.46ZM31.12 9.8L30.1713 9.48377L30.1644 9.50439L30.1585 9.52528L31.12 9.8ZM31.46 9.18V8.18H30.96L30.66 8.58L31.46 9.18ZM36.8 9.18H37.8V8.18H36.8V9.18ZM36.72 10L37.6862 10.2577L37.6882 10.2501L37.6901 10.2425L36.72 10ZM36.48 10.34L36.2375 9.36986L36.2111 9.37646L36.1851 9.38448L36.48 10.34ZM34.86 10.84L33.9188 10.5021L33.2426 12.3857L35.1549 11.7955L34.86 10.84ZM35.14 10.06L36.0907 9.74994L35.1854 6.9739L34.1988 9.72213L35.14 10.06ZM38.16 19.32V20.32H39.538L39.1107 19.0099L38.16 19.32ZM37.76 19.32L36.8054 19.0221L36.4004 20.32H37.76V19.32ZM40.5 10.54V9.54H39.7645L39.5454 10.2421L40.5 10.54ZM42.22 10.54L43.1623 10.2052L42.9259 9.54H42.22V10.54ZM45.34 19.32V20.32H46.7566L46.2823 18.9852L45.34 19.32ZM45 19.32L44.0431 19.0296L43.6515 20.32H45V19.32ZM47.78 10.16H48.78L46.8231 9.86959L47.78 10.16ZM47.78 10.88L47.5783 11.8595L48.78 12.1069V10.88H47.78ZM45.74 10.46H44.74V11.2751L45.5383 11.4395L45.74 10.46ZM45.82 9.8L46.7815 10.0747L46.784 10.0662L46.7862 10.0577L45.82 9.8ZM46.14 9.18V8.18H45.64L45.34 8.58L46.14 9.18ZM50.84 9.18H51.84V8.18H50.84V9.18ZM50.76 10L51.7262 10.2577L51.7282 10.2501L51.7301 10.2425L50.76 10ZM50.52 10.34L50.2775 9.36986L50.2566 9.37508L50.2359 9.3812L50.52 10.34ZM48.9 10.82L48.1351 10.1759L45.9877 12.7259L49.1841 11.7788L48.9 10.82ZM49.54 10.06L50.4971 10.3496L48.7751 9.41586L49.54 10.06ZM46.06 21.56L47.0158 21.8541L47.0171 21.8496L46.06 21.56ZM45.66 21.98L46.0829 22.8862L46.0951 22.8805L46.1072 22.8744L45.66 21.98ZM45 22.18L44.8356 21.1936L44.8262 21.1952L45 22.18ZM43.82 22.2L43.7153 23.1945L43.7205 23.195L43.82 22.2ZM43.2 22.1L42.2572 22.4333L42.4362 22.9398L42.9575 23.0701L43.2 22.1ZM40.28 13.84V12.84H38.8658L39.3372 14.1733L40.28 13.84ZM41.18 13.84L42.1349 14.1369L42.5381 12.84H41.18V13.84ZM38.78 21.56L37.8251 21.2631L37.8242 21.2659L38.78 21.56ZM38.38 21.98L38.8029 22.8862L38.8151 22.8805L38.8272 22.8744L38.38 21.98ZM37.72 22.18L37.5556 21.1936L37.5462 21.1952L37.72 22.18ZM37.16 21.24C37.0632 21.24 36.8953 21.2305 36.6395 21.205L36.4405 23.195C36.718 23.2228 36.9635 23.24 37.16 23.24V21.24ZM36.6447 21.2055C36.4157 21.1814 36.2598 21.1542 36.1625 21.1299L35.6775 23.0701C35.9002 23.1258 36.1576 23.1653 36.4353 23.1945L36.6447 21.2055ZM36.871 21.7909L32.991 9.85095L31.089 10.469L34.969 22.4091L36.871 21.7909ZM31.3517 10.8855L32.1317 11.6255L33.5083 10.1745L32.7283 9.43454L31.3517 10.8855ZM33.06 9.92922L31.28 9.48922L30.8 11.4308L32.58 11.8708L33.06 9.92922ZM32.04 10.46C32.04 10.273 32.0601 10.1497 32.0815 10.0747L30.1585 9.52528C30.0732 9.82368 30.04 10.1403 30.04 10.46H32.04ZM32.0687 10.1162C32.0937 10.0411 32.1482 9.92905 32.26 9.78L30.66 8.58C30.4518 8.85761 30.2796 9.15891 30.1713 9.48377L32.0687 10.1162ZM31.46 10.18H36.8V8.18H31.46V10.18ZM35.8 9.18C35.8 9.46894 35.776 9.65297 35.7499 9.75746L37.6901 10.2425C37.7707 9.92037 37.8 9.55772 37.8 9.18H35.8ZM35.7538 9.74234C35.7441 9.77877 35.7499 9.73353 35.803 9.65832C35.8639 9.57203 36.0026 9.42859 36.2375 9.36986L36.7225 11.3101C37.4082 11.1387 37.6208 10.5032 37.6862 10.2577L35.7538 9.74234ZM36.1851 9.38448L34.5651 9.88448L35.1549 11.7955L36.7749 11.2955L36.1851 9.38448ZM35.8012 11.1779L36.0812 10.3979L34.1988 9.72213L33.9188 10.5021L35.8012 11.1779ZM34.1893 10.3701L37.2093 19.6301L39.1107 19.0099L36.0907 9.74994L34.1893 10.3701ZM38.16 18.32H37.76V20.32H38.16V18.32ZM38.7146 19.6179L41.4546 10.8379L39.5454 10.2421L36.8054 19.0221L38.7146 19.6179ZM40.5 11.54H42.22V9.54H40.5V11.54ZM41.2777 10.8748L44.3977 19.6548L46.2823 18.9852L43.1623 10.2052L41.2777 10.8748ZM45.34 18.32H45V20.32H45.34V18.32ZM45.9569 19.6104L48.7369 10.4504L46.8231 9.86959L44.0431 19.0296L45.9569 19.6104ZM46.78 10.16V10.88H48.78V10.16H46.78ZM47.9817 9.90054L45.9417 9.48054L45.5383 11.4395L47.5783 11.8595L47.9817 9.90054ZM46.74 10.46C46.74 10.273 46.7601 10.1497 46.7815 10.0747L44.8585 9.52528C44.7732 9.82368 44.74 10.1403 44.74 10.46H46.74ZM46.7862 10.0577C46.7986 10.0114 46.8357 9.91911 46.94 9.78L45.34 8.58C45.1243 8.86756 44.9481 9.18862 44.8538 9.54234L46.7862 10.0577ZM46.14 10.18H50.84V8.18H46.14V10.18ZM49.84 9.18C49.84 9.46894 49.816 9.65297 49.7899 9.75746L51.7301 10.2425C51.8107 9.92037 51.84 9.55772 51.84 9.18H49.84ZM49.7938 9.74234C49.7841 9.77877 49.7899 9.73353 49.843 9.65832C49.9039 9.57203 50.0426 9.42859 50.2775 9.36986L50.7625 11.3101C51.4482 11.1387 51.6608 10.5032 51.7262 10.2577L49.7938 9.74234ZM50.2359 9.3812L48.6159 9.8612L49.1841 11.7788L50.8041 11.2988L50.2359 9.3812ZM49.6649 11.4641L50.3049 10.7041L48.7751 9.41586L48.1351 10.1759L49.6649 11.4641ZM48.5829 9.77036L45.1029 21.2704L47.0171 21.8496L50.4971 10.3496L48.5829 9.77036ZM45.1042 21.2659C45.1261 21.1949 45.163 21.1399 45.1959 21.1053C45.2251 21.0746 45.2393 21.0723 45.2128 21.0856L46.1072 22.8744C46.4844 22.6858 46.859 22.3637 47.0158 21.8541L45.1042 21.2659ZM45.2371 21.0738C45.1272 21.1251 44.9952 21.167 44.8356 21.1936L45.1644 23.1664C45.4848 23.113 45.7928 23.0215 46.0829 22.8862L45.2371 21.0738ZM44.8262 21.1952C44.6285 21.2301 44.5053 21.24 44.44 21.24V23.24C44.668 23.24 44.9181 23.2099 45.1738 23.1648L44.8262 21.1952ZM44.44 21.24C44.3432 21.24 44.1753 21.2305 43.9195 21.205L43.7205 23.195C43.998 23.2228 44.2435 23.24 44.44 23.24V21.24ZM43.9247 21.2055C43.6957 21.1814 43.5398 21.1542 43.4425 21.1299L42.9575 23.0701C43.1802 23.1258 43.4376 23.1653 43.7153 23.1945L43.9247 21.2055ZM44.1428 21.7667L41.2228 13.5067L39.3372 14.1733L42.2572 22.4333L44.1428 21.7667ZM40.28 14.84H41.18V12.84H40.28V14.84ZM40.2251 13.5431L37.8251 21.2631L39.7349 21.8569L42.1349 14.1369L40.2251 13.5431ZM37.8242 21.2659C37.8461 21.1949 37.883 21.1399 37.9159 21.1053C37.9451 21.0746 37.9593 21.0723 37.9328 21.0856L38.8272 22.8744C39.2044 22.6858 39.579 22.3637 39.7358 21.8541L37.8242 21.2659ZM37.9571 21.0738C37.8472 21.1251 37.7152 21.167 37.5556 21.1936L37.8844 23.1664C38.2048 23.113 38.5128 23.0215 38.8029 22.8862L37.9571 21.0738ZM37.5462 21.1952C37.3485 21.2301 37.2253 21.24 37.16 21.24V23.24C37.388 23.24 37.6381 23.2099 37.8938 23.1648L37.5462 21.1952ZM51.4428 22H50.4428V23H51.4428V22ZM51.7628 20.84L52.1139 21.7763L52.1463 21.7642L52.1778 21.7498L51.7628 20.84ZM52.9028 20.32L53.7424 20.8633L55.6017 17.9898L52.4878 19.4102L52.9028 20.32ZM52.6828 20.66H51.6828V24.0462L53.5224 21.2033L52.6828 20.66ZM52.6828 8.78L53.5069 8.21347L51.6828 5.56032V8.78H52.6828ZM52.9028 9.1L52.6215 10.0596L55.3198 10.8505L53.7269 8.53347L52.9028 9.1ZM51.7428 8.76L51.4266 9.70868L51.444 9.71447L51.4615 9.71963L51.7428 8.76ZM51.4428 7.62L51.2908 6.63163L50.4428 6.76208V7.62H51.4428ZM53.0828 7.4L53.1823 8.39504L53.1987 8.3934L53.215 8.39123L53.0828 7.4ZM55.1628 7.64L54.4774 8.3682L54.4891 8.37921L54.5012 8.38984L55.1628 7.64ZM55.5028 14.82L54.7219 15.4447L56.5028 17.6708V14.82H55.5028ZM55.3428 14.62V13.62H53.2622L54.5619 15.2447L55.3428 14.62ZM55.6628 14.62V15.62H56.0705L56.3619 15.335L55.6628 14.62ZM57.5828 13.26L58.0086 14.1648L58.0158 14.1614L58.023 14.1579L57.5828 13.26ZM61.7828 20.56L60.9764 21.1514L62.7828 23.6146V20.56H61.7828ZM61.5628 20.26L61.8633 19.3062L58.9502 18.3884L60.7564 20.8514L61.5628 20.26ZM63.0228 20.72H64.0228V19.9866L63.3233 19.7662L63.0228 20.72ZM62.9428 21.4L63.9043 21.6747L63.9043 21.6747L62.9428 21.4ZM62.6628 22V23H63.2171L63.5108 22.53L62.6628 22ZM57.8628 22H56.8628V23H57.8628V22ZM58.1828 20.84L58.5339 21.7763L58.55 21.7703L58.5658 21.7637L58.1828 20.84ZM59.0028 20.5L59.8647 21.007L61.3795 18.432L58.6198 19.5763L59.0028 20.5ZM58.8028 20.84H57.8028V24.5123L59.6647 21.347L58.8028 20.84ZM56.8028 14.98L57.1967 15.8991L57.2067 15.8949L57.2166 15.8904L56.8028 14.98ZM56.0628 15.42L56.6875 16.2009L56.6934 16.1961L56.0628 15.42ZM55.6028 15.84L54.625 15.6305L53.8303 19.3393L56.3502 16.5044L55.6028 15.84ZM55.6628 15.56H56.6628L54.685 15.3505L55.6628 15.56ZM55.6628 20.72L54.8819 21.3447L56.6628 23.5708V20.72H55.6628ZM55.4228 20.42L55.6732 19.4519L52.7662 18.7001L54.6419 21.0447L55.4228 20.42ZM56.5828 20.72H57.5828V19.9457L56.8332 19.7519L56.5828 20.72ZM56.5028 21.4L57.4643 21.6747L57.4643 21.6747L56.5028 21.4ZM56.2028 22V23H56.7288L57.0269 22.5665L56.2028 22ZM52.4428 22C52.4428 21.851 52.4486 21.7306 52.458 21.6358C52.4675 21.5391 52.4795 21.4824 52.4868 21.4559C52.4953 21.4252 52.4905 21.4604 52.4475 21.523C52.3998 21.5927 52.2949 21.7085 52.1139 21.7763L51.4117 19.9037C50.837 20.1192 50.6344 20.6502 50.5588 20.9241C50.4704 21.2446 50.4428 21.6186 50.4428 22H52.4428ZM52.1778 21.7498L53.3178 21.2298L52.4878 19.4102L51.3478 19.9302L52.1778 21.7498ZM52.0632 19.7767L51.8432 20.1167L53.5224 21.2033L53.7424 20.8633L52.0632 19.7767ZM53.6828 20.66V8.78H51.6828V20.66H53.6828ZM51.8588 9.34653L52.0788 9.66653L53.7269 8.53347L53.5069 8.21347L51.8588 9.34653ZM53.1841 8.14037L52.0241 7.80037L51.4615 9.71963L52.6215 10.0596L53.1841 8.14037ZM52.059 7.81132C52.2708 7.8819 52.3903 8.0172 52.4417 8.09369C52.488 8.16263 52.4933 8.20266 52.4849 8.17051C52.4779 8.14394 52.4664 8.0866 52.4573 7.98848C52.4483 7.89241 52.4428 7.77062 52.4428 7.62H50.4428C50.4428 7.99784 50.4683 8.36637 50.5507 8.67949C50.6152 8.92444 50.8095 9.50298 51.4266 9.70868L52.059 7.81132ZM51.5949 8.60837C52.2815 8.50273 52.8081 8.43245 53.1823 8.39504L52.9833 6.40496C52.5575 6.44754 51.9908 6.52393 51.2908 6.63163L51.5949 8.60837ZM53.215 8.39123C53.5936 8.34075 53.8716 8.32 54.0628 8.32V6.32C53.7473 6.32 53.3721 6.35258 52.9506 6.40877L53.215 8.39123ZM54.0628 8.32C54.2505 8.32 54.37 8.34026 54.4385 8.36019C54.5039 8.37923 54.5024 8.39171 54.4774 8.3682L55.8482 6.9118C55.3492 6.44221 54.6728 6.32 54.0628 6.32V8.32ZM54.5012 8.38984C54.4596 8.35315 54.4578 8.32733 54.4691 8.36123C54.4825 8.40129 54.5028 8.49339 54.5028 8.66H56.5028C56.5028 8.05916 56.3654 7.36751 55.8244 6.89016L54.5012 8.38984ZM54.5028 8.66V14.82H56.5028V8.66H54.5028ZM56.2837 14.1953L56.1237 13.9953L54.5619 15.2447L54.7219 15.4447L56.2837 14.1953ZM55.3428 15.62H55.6628V13.62H55.3428V15.62ZM56.3619 15.335C56.8913 14.8174 57.4407 14.4321 58.0086 14.1648L57.157 12.3552C56.3649 12.7279 55.6343 13.2493 54.9637 13.905L56.3619 15.335ZM58.023 14.1579C58.6009 13.8746 59.09 13.76 59.5028 13.76V11.76C58.7156 11.76 57.9247 11.9787 57.1427 12.3621L58.023 14.1579ZM59.5028 13.76C60.0139 13.76 60.2548 13.9165 60.4091 14.125C60.605 14.3897 60.7828 14.9075 60.7828 15.84H62.7828C62.7828 14.7192 62.5806 13.6969 62.0166 12.935C61.4109 12.1168 60.5117 11.76 59.5028 11.76V13.76ZM60.7828 15.84V20.56H62.7828V15.84H60.7828ZM62.5892 19.9686L62.3692 19.6686L60.7564 20.8514L60.9764 21.1514L62.5892 19.9686ZM61.2623 21.2138L62.7223 21.6738L63.3233 19.7662L61.8633 19.3062L61.2623 21.2138ZM62.0228 20.72C62.0228 20.9258 62.0016 21.0542 61.9813 21.1253L63.9043 21.6747C63.9907 21.3724 64.0228 21.0476 64.0228 20.72H62.0228ZM61.9813 21.1253C61.96 21.1999 61.9124 21.3139 61.8148 21.47L63.5108 22.53C63.6799 22.2594 63.819 21.9734 63.9043 21.6747L61.9813 21.1253ZM62.6628 21H57.8628V23H62.6628V21ZM58.8628 22C58.8628 21.851 58.8686 21.7306 58.878 21.6358C58.8875 21.5391 58.8995 21.4824 58.9068 21.4559C58.9153 21.4252 58.9105 21.4604 58.8675 21.523C58.8198 21.5927 58.7149 21.7085 58.5339 21.7763L57.8317 19.9037C57.257 20.1192 57.0544 20.6502 56.9788 20.9241C56.8904 21.2446 56.8628 21.6186 56.8628 22H58.8628ZM58.5658 21.7637L59.3858 21.4237L58.6198 19.5763L57.7998 19.9163L58.5658 21.7637ZM58.1409 19.993L57.9409 20.333L59.6647 21.347L59.8647 21.007L58.1409 19.993ZM59.8028 20.84V16.26H57.8028V20.84H59.8028ZM59.8028 16.26C59.8028 15.6719 59.6987 15.049 59.3304 14.5535C58.9208 14.0023 58.3169 13.78 57.7028 13.78V15.78C57.775 15.78 57.7908 15.7921 57.7748 15.7849C57.7532 15.7752 57.7334 15.7576 57.7252 15.7465C57.7213 15.7412 57.742 15.7667 57.7634 15.853C57.785 15.9402 57.8028 16.072 57.8028 16.26H59.8028ZM57.7028 13.78C57.2462 13.78 56.8056 13.8803 56.389 14.0696L57.2166 15.8904C57.3867 15.813 57.5461 15.78 57.7028 15.78V13.78ZM56.4089 14.0609C56.0529 14.2134 55.7247 14.4062 55.4322 14.6439L56.6934 16.1961C56.8276 16.0871 56.9928 15.9866 57.1967 15.8991L56.4089 14.0609ZM55.4381 14.6391C55.2167 14.8163 55.0149 14.9962 54.8554 15.1756L56.3502 16.5044C56.404 16.4438 56.509 16.3437 56.6875 16.2009L55.4381 14.6391ZM56.5806 16.0495L56.6406 15.7695L54.685 15.3505L54.625 15.6305L56.5806 16.0495ZM54.6628 15.56V20.72H56.6628V15.56H54.6628ZM56.4437 20.0953L56.2037 19.7953L54.6419 21.0447L54.8819 21.3447L56.4437 20.0953ZM55.1724 21.3881L56.3324 21.6881L56.8332 19.7519L55.6732 19.4519L55.1724 21.3881ZM55.5828 20.72C55.5828 20.9258 55.5616 21.0542 55.5413 21.1253L57.4643 21.6747C57.5507 21.3724 57.5828 21.0476 57.5828 20.72H55.5828ZM55.5413 21.1253C55.5257 21.1797 55.4833 21.2815 55.3788 21.4335L57.0269 22.5665C57.2157 22.2919 57.3732 21.9936 57.4643 21.6747L55.5413 21.1253ZM56.2028 21H51.4428V23H56.2028V21ZM64.8214 21.66L64.1264 22.379L64.8214 21.66ZM64.9814 18.3L65.6791 19.0165L65.6885 19.0071L64.9814 18.3ZM67.2014 17.2L66.9814 16.2245L66.9746 16.2261L67.2014 17.2ZM69.8614 16.6L70.6784 17.1767L72.1779 15.0524L69.6414 15.6245L69.8614 16.6ZM69.6214 16.94H68.6214V20.0907L70.4384 17.5167L69.6214 16.94ZM69.3614 14.26L68.5005 14.7687L68.5057 14.7776L68.5111 14.7864L69.3614 14.26ZM67.3814 14.34L66.574 13.75L66.5699 13.7557L67.3814 14.34ZM67.0014 15.88L67.7908 16.4939L67.9948 16.2316L68.0012 15.8992L67.0014 15.88ZM66.5614 16.16L66.2452 15.2113L66.2452 15.2113L66.5614 16.16ZM65.0214 15.98L64.3375 16.7095L64.35 16.7213L64.3629 16.7326L65.0214 15.98ZM65.2414 13.94L64.5473 13.2202L64.5407 13.2265L64.5343 13.2329L65.2414 13.94ZM66.7614 13.08L66.4452 12.1313L66.4452 12.1313L66.7614 13.08ZM71.6414 13.56L70.9933 14.3216L71.0012 14.3282L71.6414 13.56ZM72.7414 20.44L71.9521 21.0539L71.9698 21.0768L71.9888 21.0985L72.7414 20.44ZM73.6014 20.52L73.23 19.5915L73.23 19.5915L73.6014 20.52ZM73.9414 20.38L74.9115 20.1375L74.6268 18.9983L73.5475 19.4609L73.9414 20.38ZM74.1614 21.26L74.8371 21.9972L75.2759 21.5949L75.1315 21.0175L74.1614 21.26ZM72.9814 21.98L73.3385 22.9141L73.3457 22.9113L73.3528 22.9085L72.9814 21.98ZM69.8014 20.5H70.8014V19.5H69.8014V20.5ZM69.6414 20.5V19.5H69.1512L68.851 19.8874L69.6414 20.5ZM68.1214 21.78L68.5765 22.6704L68.5843 22.6665L68.592 22.6624L68.1214 21.78ZM68.9214 20.22L68.4508 19.3376L68.4445 19.341L68.4383 19.3444L68.9214 20.22ZM69.9014 19.42L70.819 19.8176L69.1174 18.7993L69.9014 19.42ZM69.6414 20.02H68.6414L70.559 20.4176L69.6414 20.02ZM69.6414 17.58L69.8152 16.5952L68.6414 16.3881V17.58H69.6414ZM69.9814 17.64L70.2167 18.6119L70.1552 16.6552L69.9814 17.64ZM68.0814 18.1L68.2775 19.0806L68.2972 19.0766L68.3167 19.0719L68.0814 18.1ZM67.1614 18.58L67.9088 19.2444L67.9088 19.2444L67.1614 18.58ZM67.1214 20.24L67.8525 19.5577L67.8525 19.5577L67.1214 20.24ZM66.3414 21.24C65.9584 21.24 65.7101 21.1282 65.5164 20.941L64.1264 22.379C64.7327 22.9651 65.4977 23.24 66.3414 23.24V21.24ZM65.5164 20.941C65.3323 20.7631 65.2214 20.5329 65.2214 20.16H63.2214C63.2214 21.0138 63.5105 21.7836 64.1264 22.379L65.5164 20.941ZM65.2214 20.16C65.2214 19.6664 65.3774 19.3101 65.679 19.0165L64.2838 17.5835C63.5721 18.2765 63.2214 19.1603 63.2214 20.16H65.2214ZM65.6885 19.0071C66.0208 18.6748 66.568 18.3743 67.4282 18.1739L66.9746 16.2261C65.8882 16.4791 64.9553 16.9119 64.2743 17.5929L65.6885 19.0071ZM67.4214 18.1755L70.0814 17.5755L69.6414 15.6245L66.9814 16.2245L67.4214 18.1755ZM69.0444 16.0233L68.8044 16.3633L70.4384 17.5167L70.6784 17.1767L69.0444 16.0233ZM70.6214 16.94V15.7H68.6214V16.94H70.6214ZM70.6214 15.7C70.6214 14.994 70.5422 14.2676 70.2117 13.7336L68.5111 14.7864C68.5079 14.7812 68.5416 14.8373 68.5723 15.0077C68.6018 15.1712 68.6214 15.3982 68.6214 15.7H70.6214ZM70.2223 13.7513C69.8283 13.0844 69.1601 12.82 68.4814 12.82V14.82C68.5722 14.82 68.5878 14.8362 68.5642 14.8244C68.5522 14.8184 68.5372 14.8086 68.5229 14.7951C68.5088 14.7818 68.5019 14.7712 68.5005 14.7687L70.2223 13.7513ZM68.4814 12.82C67.7257 12.82 67.0399 13.1125 66.574 13.75L68.1888 14.93C68.2296 14.8742 68.2771 14.82 68.4814 14.82V12.82ZM66.5699 13.7557C66.1545 14.3326 66.0164 15.0897 66.0016 15.8608L68.0012 15.8992C68.0131 15.2836 68.1283 15.0141 68.1929 14.9243L66.5699 13.7557ZM66.2121 15.2661C66.2451 15.2236 66.2748 15.2025 66.2845 15.1963C66.2929 15.191 66.2834 15.1986 66.2452 15.2113L66.8776 17.1087C67.1949 17.0029 67.5377 16.8193 67.7908 16.4939L66.2121 15.2661ZM66.2452 15.2113C66.1545 15.2415 66.0487 15.26 65.9214 15.26V17.26C66.2475 17.26 66.5683 17.2118 66.8776 17.1087L66.2452 15.2113ZM65.9214 15.26C65.6884 15.26 65.6538 15.2046 65.6799 15.2274L64.3629 16.7326C64.8157 17.1288 65.3811 17.26 65.9214 17.26V15.26ZM65.7053 15.2505C65.7009 15.2463 65.7006 15.2453 65.7023 15.2477C65.7041 15.2502 65.7057 15.2532 65.7066 15.2554C65.7074 15.2575 65.7063 15.2556 65.7049 15.2479C65.7034 15.2399 65.7014 15.2244 65.7014 15.2H63.7014C63.7014 15.7674 63.9023 16.3015 64.3375 16.7095L65.7053 15.2505ZM65.7014 15.2C65.7014 15.0026 65.7634 14.8322 65.9485 14.6471L64.5343 13.2329C63.9994 13.7678 63.7014 14.4374 63.7014 15.2H65.7014ZM65.9355 14.6598C66.1743 14.4296 66.5382 14.2085 67.0776 14.0287L66.4452 12.1313C65.7046 12.3782 65.0552 12.7304 64.5473 13.2202L65.9355 14.6598ZM67.0776 14.0287C67.6003 13.8544 68.2048 13.76 68.9014 13.76V11.76C68.0247 11.76 67.2025 11.8789 66.4452 12.1313L67.0776 14.0287ZM68.9014 13.76C69.9702 13.76 70.6146 13.9993 70.9933 14.3215L72.2895 12.7985C71.4148 12.0541 70.2326 11.76 68.9014 11.76V13.76ZM71.0012 14.3282C71.358 14.6255 71.6014 15.0965 71.6014 15.92H73.6014C73.6014 14.6635 73.2048 13.5611 72.2816 12.7918L71.0012 14.3282ZM71.6014 15.92V19.9H73.6014V15.92H71.6014ZM71.6014 19.9C71.6014 20.242 71.6632 20.6826 71.9521 21.0539L73.5308 19.8261C73.5842 19.8948 73.601 19.9508 73.6044 19.964C73.6074 19.9757 73.6014 19.9585 73.6014 19.9H71.6014ZM71.9888 21.0985C72.3511 21.5125 72.8465 21.6 73.2014 21.6V19.6C73.1735 19.6 73.1987 19.5959 73.2549 19.6155C73.3179 19.6374 73.4108 19.6864 73.494 19.7815L71.9888 21.0985ZM73.2014 21.6C73.4715 21.6 73.7305 21.5454 73.9728 21.4485L73.23 19.5915C73.2169 19.5968 73.2088 19.5987 73.2053 19.5994C73.2019 19.6001 73.2009 19.6 73.2014 19.6V21.6ZM73.9728 21.4485C74.1109 21.3932 74.2322 21.3434 74.3353 21.2991L73.5475 19.4609C73.464 19.4966 73.3586 19.5401 73.23 19.5915L73.9728 21.4485ZM72.9713 20.6225L73.1913 21.5025L75.1315 21.0175L74.9115 20.1375L72.9713 20.6225ZM73.4857 20.5228C73.2676 20.7228 72.9819 20.9028 72.61 21.0515L73.3528 22.9085C73.9142 22.6839 74.4152 22.3839 74.8371 21.9972L73.4857 20.5228ZM72.6243 21.0459C72.2613 21.1847 71.9564 21.24 71.7014 21.24V23.24C72.2464 23.24 72.7948 23.1219 73.3385 22.9141L72.6243 21.0459ZM71.7014 21.24C71.2689 21.24 71.0739 21.1319 70.9785 21.0441L69.6243 22.5159C70.1956 23.0414 70.9339 23.24 71.7014 23.24V21.24ZM70.9785 21.0441C70.8929 20.9654 70.8014 20.8297 70.8014 20.5H68.8014C68.8014 21.2637 69.0432 21.9813 69.6243 22.5159L70.9785 21.0441ZM69.8014 19.5H69.6414V21.5H69.8014V19.5ZM68.851 19.8874C68.5247 20.3084 68.1274 20.6435 67.6508 20.8976L68.592 22.6624C69.3154 22.2765 69.9314 21.7583 70.4318 21.1126L68.851 19.8874ZM67.6663 20.8896C67.1862 21.135 66.7478 21.24 66.3414 21.24V23.24C67.1083 23.24 67.8566 23.0384 68.5765 22.6704L67.6663 20.8896ZM67.8614 21.54C68.4024 21.54 68.9234 21.361 69.4045 21.0956L68.4383 19.3444C68.1461 19.5057 67.9604 19.54 67.8614 19.54V21.54ZM69.392 21.1024C69.8999 20.8315 70.3377 20.4799 70.6855 20.0407L69.1174 18.7993C68.9584 19.0001 68.7429 19.1818 68.4508 19.3376L69.392 21.1024ZM68.9839 19.0224L68.7239 19.6224L70.559 20.4176L70.819 19.8176L68.9839 19.0224ZM70.6414 20.02V17.58H68.6414V20.02H70.6414ZM69.4676 18.5648L69.8076 18.6248L70.1552 16.6552L69.8152 16.5952L69.4676 18.5648ZM69.7461 16.6681L67.8461 17.1281L68.3167 19.0719L70.2167 18.6119L69.7461 16.6681ZM67.8853 17.1194C67.3303 17.2304 66.8069 17.4737 66.414 17.9156L67.9088 19.2444C67.9426 19.2063 68.0325 19.1296 68.2775 19.0806L67.8853 17.1194ZM66.414 17.9156C66.0244 18.3539 65.8414 18.8896 65.8414 19.46H67.8414C67.8414 19.3371 67.8717 19.2861 67.9088 19.2444L66.414 17.9156ZM65.8414 19.46C65.8414 19.9874 66.0019 20.5061 66.3904 20.9223L67.8525 19.5577C67.8515 19.5567 67.8521 19.5572 67.8531 19.5588C67.8541 19.5604 67.8537 19.5603 67.8526 19.5571C67.8505 19.5512 67.8414 19.5228 67.8414 19.46H65.8414ZM66.3904 20.9223C66.79 21.3505 67.3146 21.54 67.8614 21.54V19.54C67.8391 19.54 67.826 19.5382 67.8205 19.5372C67.8153 19.5363 67.8165 19.536 67.8221 19.5383C67.8279 19.5406 67.835 19.5443 67.8419 19.5491C67.8451 19.5513 67.8477 19.5534 67.8496 19.555C67.8506 19.5558 67.8513 19.5565 67.8518 19.557C67.8522 19.5574 67.8525 19.5577 67.8525 19.5577L66.3904 20.9223ZM75.2022 22H74.2022V23H75.2022V22ZM75.5222 20.84L75.8733 21.7763L75.9057 21.7642L75.9372 21.7498L75.5222 20.84ZM76.6622 20.32L77.5018 20.8633L79.361 17.9898L76.2472 19.4102L76.6622 20.32ZM76.4422 20.66H75.4422V24.0462L77.2818 21.2033L76.4422 20.66ZM76.4422 14.44L77.2422 13.84L75.4422 11.44V14.44H76.4422ZM76.6822 14.76L76.4009 15.7196L79.2862 16.5653L77.4822 14.16L76.6822 14.76ZM75.5222 14.42L75.8035 13.4603L75.7969 13.4585L75.5222 14.42ZM75.2822 14.08L74.316 14.3377L74.3238 14.3672L74.3335 14.3962L75.2822 14.08ZM75.2022 13.28L75.0407 12.2931L74.2022 12.4303V13.28H75.2022ZM76.8822 13.04L76.9851 14.0347L76.9851 14.0347L76.8822 13.04ZM78.9622 13.3L78.2327 13.9839L78.2547 14.0075L78.2782 14.0295L78.9622 13.3ZM79.2822 15.02L78.5751 15.7271L80.2822 17.4342V15.02H79.2822ZM79.0422 14.78V13.78H76.628L78.3351 15.4871L79.0422 14.78ZM79.4022 14.78V15.78H80.0324L80.3043 15.2115L79.4022 14.78ZM80.5422 13.32L81.153 14.1118L81.16 14.1064L81.1669 14.1009L80.5422 13.32ZM83.2822 13.16L82.5925 13.8841L82.6009 13.8921L82.6095 13.8999L83.2822 13.16ZM83.3022 15.3L82.5951 14.5929L82.5865 14.6015L82.5781 14.6103L83.3022 15.3ZM82.3222 15.72L81.4278 16.1672L81.7042 16.72H82.3222V15.72ZM81.8022 15.06L81.221 15.8737L81.2409 15.888L81.2614 15.9012L81.8022 15.06ZM79.2822 16.02L78.3234 15.7359L80.1044 16.5892L79.2822 16.02ZM79.4422 15.48H80.4422L78.4834 15.1959L79.4422 15.48ZM79.4422 20.72L78.5942 21.25L80.4422 24.2068V20.72H79.4422ZM79.1422 20.24L79.3896 19.2711L76.9715 18.6537L78.2942 20.77L79.1422 20.24ZM81.0222 20.72H82.0222V19.9432L81.2696 19.7511L81.0222 20.72ZM80.9422 21.4L81.9037 21.6747L81.9037 21.6747L80.9422 21.4ZM80.6422 22V23H81.1682L81.4662 22.5665L80.6422 22ZM76.2022 22C76.2022 21.851 76.208 21.7306 76.2173 21.6358C76.2269 21.5391 76.2389 21.4824 76.2462 21.4559C76.2547 21.4252 76.2498 21.4604 76.2069 21.523C76.1592 21.5927 76.0543 21.7085 75.8733 21.7763L75.1711 19.9037C74.5964 20.1192 74.3938 20.6502 74.3182 20.9241C74.2298 21.2446 74.2022 21.6186 74.2022 22H76.2022ZM75.9372 21.7498L77.0772 21.2298L76.2472 19.4102L75.1072 19.9302L75.9372 21.7498ZM75.8226 19.7767L75.6026 20.1167L77.2818 21.2033L77.5018 20.8633L75.8226 19.7767ZM77.4422 20.66V14.44H75.4422V20.66H77.4422ZM75.6422 15.04L75.8822 15.36L77.4822 14.16L77.2422 13.84L75.6422 15.04ZM76.9635 13.8004L75.8035 13.4604L75.2409 15.3796L76.4009 15.7196L76.9635 13.8004ZM75.7969 13.4585C76.0466 13.5298 76.1727 13.6867 76.2092 13.7383C76.2468 13.7916 76.2476 13.8139 76.2309 13.7638L74.3335 14.3962C74.3835 14.5461 74.4576 14.7251 74.5752 14.8917C74.6916 15.0566 74.9044 15.2835 75.2475 15.3815L75.7969 13.4585ZM76.2484 13.8223C76.2269 13.7415 76.2022 13.5723 76.2022 13.28H74.2022C74.2022 13.6543 74.2308 14.0185 74.316 14.3377L76.2484 13.8223ZM75.3637 14.2669C76.0917 14.1478 76.6284 14.0716 76.9851 14.0347L76.7793 12.0453C76.3627 12.0884 75.7794 12.1722 75.0407 12.2931L75.3637 14.2669ZM76.9851 14.0347C77.3515 13.9968 77.6415 13.98 77.8622 13.98V11.98C77.5495 11.98 77.1862 12.0032 76.7793 12.0453L76.9851 14.0347ZM77.8622 13.98C78.0687 13.98 78.1933 14.0014 78.2579 14.0202C78.3205 14.0384 78.2873 14.0422 78.2327 13.9839L79.6917 12.6161C79.1962 12.0875 78.4632 11.98 77.8622 11.98V13.98ZM78.2782 14.0295C78.2165 13.9716 78.2212 13.9366 78.2407 14.0047C78.2604 14.0739 78.2822 14.2049 78.2822 14.42H80.2822C80.2822 13.8146 80.1783 13.0693 79.6461 12.5705L78.2782 14.0295ZM78.2822 14.42V15.02H80.2822V14.42H78.2822ZM79.9893 14.3129L79.7493 14.0729L78.3351 15.4871L78.5751 15.7271L79.9893 14.3129ZM79.0422 15.78H79.4022V13.78H79.0422V15.78ZM80.3043 15.2115C80.5405 14.7176 80.8281 14.3624 81.153 14.1118L79.9314 12.5282C79.323 12.9976 78.8506 13.6157 78.5001 14.3485L80.3043 15.2115ZM81.1669 14.1009C81.495 13.8384 81.761 13.76 81.9822 13.76V11.76C81.2167 11.76 80.5227 12.0549 79.9175 12.5391L81.1669 14.1009ZM81.9822 13.76C82.4418 13.76 82.5749 13.8674 82.5925 13.8841L83.9718 12.4359C83.4295 11.9193 82.6959 11.76 81.9822 11.76V13.76ZM82.6095 13.8999C82.6453 13.9325 82.7222 14.0144 82.7222 14.3H84.7222C84.7222 13.5989 84.5058 12.9209 83.9549 12.4201L82.6095 13.8999ZM82.7222 14.3C82.7222 14.4144 82.6926 14.4954 82.5951 14.5929L84.0093 16.0071C84.4718 15.5446 84.7222 14.959 84.7222 14.3H82.7222ZM82.5781 14.6103C82.5001 14.6922 82.4352 14.72 82.3222 14.72V16.72C82.9825 16.72 83.5709 16.4678 84.0263 15.9897L82.5781 14.6103ZM83.2166 15.2728C83.0206 14.8808 82.7467 14.4784 82.3429 14.2188L81.2614 15.9012C81.2406 15.8878 81.2515 15.8892 81.2867 15.9339C81.3216 15.9782 81.3702 16.0522 81.4278 16.1672L83.2166 15.2728ZM82.3834 14.2463C82.0008 13.9729 81.5623 13.86 81.1222 13.86V15.86C81.1721 15.86 81.1992 15.8662 81.21 15.8694C81.2155 15.871 81.2183 15.8723 81.2191 15.8727C81.2199 15.873 81.2204 15.8733 81.221 15.8737L82.3834 14.2463ZM81.1222 13.86C80.5853 13.86 80.0838 14.0541 79.6381 14.3283L80.6863 16.0317C80.9339 15.8793 81.0724 15.86 81.1222 15.86V13.86ZM79.6381 14.3283C79.1693 14.6168 78.7759 14.9945 78.46 15.4508L80.1044 16.5892C80.2685 16.3521 80.4617 16.1699 80.6863 16.0317L79.6381 14.3283ZM80.241 16.3041L80.401 15.7641L78.4834 15.1959L78.3234 15.7359L80.241 16.3041ZM78.4422 15.48V20.72H80.4422V15.48H78.4422ZM80.2902 20.19L79.9902 19.71L78.2942 20.77L78.5942 21.25L80.2902 20.19ZM78.8948 21.2089L80.7748 21.6889L81.2696 19.7511L79.3896 19.2711L78.8948 21.2089ZM80.0222 20.72C80.0222 20.9258 80.001 21.0542 79.9807 21.1253L81.9037 21.6747C81.9901 21.3724 82.0222 21.0476 82.0222 20.72H80.0222ZM79.9807 21.1253C79.9651 21.1797 79.9226 21.2815 79.8181 21.4335L81.4662 22.5665C81.6551 22.2919 81.8126 21.9936 81.9037 21.6747L79.9807 21.1253ZM80.6422 21H75.2022V23H80.6422V21ZM84.3837 22H83.3837V23H84.3837V22ZM84.7037 20.84L85.0549 21.7763L85.0873 21.7642L85.1188 21.7498L84.7037 20.84ZM85.8437 20.32L86.6678 20.8865L88.7126 17.9123L85.4287 19.4102L85.8437 20.32ZM85.6237 20.64H84.6237V23.8597L86.4478 21.2065L85.6237 20.64ZM85.6237 14.44L86.4237 13.84L84.6237 11.44V14.44H85.6237ZM85.8637 14.76L85.5825 15.7196L88.4677 16.5653L86.6637 14.16L85.8637 14.76ZM84.7037 14.42L84.4055 15.3745L84.414 15.3771L84.4225 15.3796L84.7037 14.42ZM84.3837 13.28L84.2345 12.2912L83.3837 12.4196V13.28H84.3837ZM86.0437 13.06L86.1433 14.055L86.1596 14.0534L86.1759 14.0512L86.0437 13.06ZM88.1237 13.3L87.4384 14.0282L87.4501 14.0392L87.4621 14.0498L88.1237 13.3ZM88.4637 14.66L88.0165 15.5544L89.4637 16.278V14.66H88.4637ZM88.3838 14.62V13.62L87.9365 15.5144L88.3838 14.62ZM88.6237 14.62V15.62H89.038L89.3309 15.3271L88.6237 14.62ZM90.4838 13.26L90.9236 14.1581L90.931 14.1544L90.4838 13.26ZM94.0038 13.54L93.1716 14.0947L93.1784 14.1047L94.0038 13.54ZM94.5238 20.72L93.7429 21.3447L95.5238 23.5708V20.72H94.5238ZM94.2838 20.42L94.5301 19.4508L91.6399 18.716L93.5029 21.0447L94.2838 20.42ZM95.4638 20.72H96.4638V19.9424L95.7101 19.7508L95.4638 20.72ZM95.3638 21.4L94.422 21.0637L94.4111 21.0942L94.4022 21.1253L95.3638 21.4ZM95.0838 22V23H95.638L95.9317 22.53L95.0838 22ZM90.6037 22H89.6037V23H90.6037V22ZM90.9237 20.84L91.2749 21.7763L91.2909 21.7703L91.3068 21.7637L90.9237 20.84ZM91.7437 20.5L92.5678 21.0665L94.4821 18.282L91.3607 19.5763L91.7437 20.5ZM91.5237 20.82H90.5237V24.0397L92.3478 21.3865L91.5237 20.82ZM89.6637 14.98L90.0741 15.8919L90.0927 15.8835L90.111 15.8744L89.6637 14.98ZM88.9638 15.42L88.3088 14.6643L88.2959 14.6755L88.2833 14.6872L88.9638 15.42ZM88.5238 15.88L87.5644 15.5978L89.3046 16.5047L88.5238 15.88ZM88.6237 15.54H89.6237L87.6644 15.2578L88.6237 15.54ZM88.6237 20.72L87.8429 21.3447L89.6237 23.5708V20.72H88.6237ZM88.3838 20.42L88.6301 19.4508L85.74 18.716L87.6029 21.0447L88.3838 20.42ZM89.5638 20.72H90.5638V19.9424L89.8101 19.7508L89.5638 20.72ZM89.4638 21.4L88.522 21.0637L88.5111 21.0942L88.5022 21.1253L89.4638 21.4ZM89.1637 22V23H89.6898L89.9878 22.5665L89.1637 22ZM96.5038 22H95.5038V23H96.5038V22ZM96.8238 20.84L97.1749 21.7763L97.1909 21.7703L97.2068 21.7637L96.8238 20.84ZM97.6438 20.5L98.4678 21.0665L100.382 18.282L97.2607 19.5763L97.6438 20.5ZM97.4238 20.82H96.4238V24.0397L98.2478 21.3865L97.4238 20.82ZM94.4837 15.82L93.5136 16.0625L93.9773 17.9174L95.2363 16.4785L94.4837 15.82ZM94.1838 14.62V13.62H92.903L93.2136 14.8625L94.1838 14.62ZM94.5038 14.62V15.62H94.9114L95.2029 15.335L94.5038 14.62ZM96.3838 13.26L96.8236 14.1581L96.831 14.1544L96.3838 13.26ZM99.9038 13.54L99.0716 14.0947L99.0784 14.1047L99.9038 13.54ZM100.424 20.56L99.6173 21.1514L101.424 23.6146V20.56H100.424ZM100.204 20.26L100.504 19.3062L97.5912 18.3884L99.3973 20.8514L100.204 20.26ZM101.664 20.72H102.664V19.9866L101.964 19.7662L101.664 20.72ZM101.584 21.4L102.545 21.6747L102.545 21.6747L101.584 21.4ZM101.284 22V23H101.81L102.108 22.5665L101.284 22ZM85.3837 22C85.3837 21.851 85.3895 21.7306 85.3989 21.6358C85.4085 21.5391 85.4204 21.4824 85.4277 21.4559C85.4362 21.4252 85.4314 21.4604 85.3885 21.523C85.3407 21.5927 85.2358 21.7085 85.0549 21.7763L84.3526 19.9037C83.7779 20.1192 83.5753 20.6502 83.4998 20.9241C83.4113 21.2446 83.3837 21.6186 83.3837 22H85.3837ZM85.1188 21.7498L86.2588 21.2298L85.4287 19.4102L84.2887 19.9302L85.1188 21.7498ZM85.0197 19.7535L84.7997 20.0735L86.4478 21.2065L86.6678 20.8865L85.0197 19.7535ZM86.6237 20.64V14.44H84.6237V20.64H86.6237ZM84.8237 15.04L85.0637 15.36L86.6637 14.16L86.4237 13.84L84.8237 15.04ZM86.145 13.8004L84.985 13.4604L84.4225 15.3796L85.5825 15.7196L86.145 13.8004ZM85.002 13.4655C85.1999 13.5274 85.3197 13.6494 85.3767 13.7289C85.427 13.7991 85.4343 13.8425 85.4265 13.8147C85.4201 13.7919 85.4084 13.738 85.3988 13.6424C85.3895 13.5488 85.3837 13.4291 85.3837 13.28H83.3837C83.3837 13.6602 83.4111 14.0351 83.501 14.3553C83.5765 14.6242 83.7903 15.1822 84.4055 15.3745L85.002 13.4655ZM84.533 14.2688C85.2337 14.163 85.7679 14.0926 86.1433 14.055L85.9442 12.065C85.5196 12.1074 84.9471 12.1836 84.2345 12.2912L84.533 14.2688ZM86.1759 14.0512C86.5519 14.0011 86.8375 13.98 87.0437 13.98V11.98C86.7166 11.98 86.3356 12.0122 85.9116 12.0688L86.1759 14.0512ZM87.0437 13.98C87.2225 13.98 87.3356 13.9998 87.3997 14.0188C87.4603 14.0368 87.4601 14.0486 87.4384 14.0282L88.8091 12.5718C88.3141 12.1059 87.6491 11.98 87.0437 11.98V13.98ZM87.4621 14.0498C87.4205 14.0131 87.4188 13.9873 87.4301 14.0212C87.4434 14.0613 87.4637 14.1534 87.4637 14.32H89.4637C89.4637 13.7192 89.3264 13.0275 88.7854 12.5502L87.4621 14.0498ZM87.4637 14.32V14.66H89.4637V14.32H87.4637ZM88.911 13.7656L88.831 13.7256L87.9365 15.5144L88.0165 15.5544L88.911 13.7656ZM88.3838 15.62H88.6237V13.62H88.3838V15.62ZM89.3309 15.3271C89.8504 14.8076 90.3821 14.4233 90.9236 14.1581L90.0439 12.3619C89.2787 12.7367 88.5705 13.2591 87.9166 13.9129L89.3309 15.3271ZM90.931 14.1544C91.4953 13.8723 91.9685 13.76 92.3638 13.76V11.76C91.5856 11.76 90.8056 11.9811 90.0365 12.3656L90.931 14.1544ZM92.3638 13.76C92.851 13.76 93.0485 13.9099 93.1717 14.0947L94.8358 12.9853C94.2656 12.1301 93.3699 11.76 92.3638 11.76V13.76ZM93.1784 14.1047C93.3567 14.3653 93.5238 14.8964 93.5238 15.86H95.5238C95.5238 14.7436 95.3441 13.7281 94.8291 12.9753L93.1784 14.1047ZM93.5238 15.86V20.72H95.5238V15.86H93.5238ZM95.3046 20.0953L95.0646 19.7953L93.5029 21.0447L93.7429 21.3447L95.3046 20.0953ZM94.0374 21.3892L95.2174 21.6892L95.7101 19.7508L94.5301 19.4508L94.0374 21.3892ZM94.4638 20.72C94.4638 20.9091 94.4394 21.015 94.422 21.0637L96.3055 21.7363C96.4215 21.4116 96.4638 21.0642 96.4638 20.72H94.4638ZM94.4022 21.1253C94.3809 21.1999 94.3333 21.3139 94.2358 21.47L95.9317 22.53C96.1009 22.2594 96.2399 21.9734 96.3253 21.6747L94.4022 21.1253ZM95.0838 21H90.6037V23H95.0838V21ZM91.6037 22C91.6037 21.851 91.6095 21.7306 91.6189 21.6358C91.6285 21.5391 91.6404 21.4824 91.6477 21.4559C91.6562 21.4252 91.6514 21.4604 91.6085 21.523C91.5607 21.5927 91.4558 21.7085 91.2749 21.7763L90.5726 19.9037C89.9979 20.1192 89.7953 20.6502 89.7198 20.9241C89.6313 21.2446 89.6037 21.6186 89.6037 22H91.6037ZM91.3068 21.7637L92.1268 21.4237L91.3607 19.5763L90.5407 19.9163L91.3068 21.7637ZM90.9197 19.9335L90.6997 20.2535L92.3478 21.3865L92.5678 21.0665L90.9197 19.9335ZM92.5237 20.82V16.26H90.5237V20.82H92.5237ZM92.5237 16.26C92.5237 15.6854 92.4324 15.0786 92.1023 14.5901C91.7251 14.0318 91.1427 13.78 90.5238 13.78V15.78C90.5667 15.78 90.5558 15.7876 90.5188 15.7693C90.4774 15.7489 90.4523 15.7204 90.4452 15.7099C90.4425 15.706 90.4642 15.7369 90.4857 15.8322C90.5071 15.9273 90.5237 16.0665 90.5237 16.26H92.5237ZM90.5238 13.78C90.0664 13.78 89.6261 13.8808 89.2165 14.0856L90.111 15.8744C90.2347 15.8125 90.3677 15.78 90.5238 15.78V13.78ZM89.2534 14.0681C88.9072 14.2238 88.5896 14.421 88.3088 14.6643L89.6187 16.1757C89.7379 16.0723 89.8869 15.9762 90.0741 15.8919L89.2534 14.0681ZM88.2833 14.6872C88.0763 14.8795 87.8913 15.0698 87.7429 15.2553L89.3046 16.5047C89.3695 16.4236 89.4779 16.3072 89.6442 16.1528L88.2833 14.6872ZM89.4831 16.1622L89.5831 15.8222L87.6644 15.2578L87.5644 15.5978L89.4831 16.1622ZM87.6237 15.54V20.72H89.6237V15.54H87.6237ZM89.4046 20.0953L89.1646 19.7953L87.6029 21.0447L87.8429 21.3447L89.4046 20.0953ZM88.1374 21.3892L89.3174 21.6892L89.8101 19.7508L88.6301 19.4508L88.1374 21.3892ZM88.5638 20.72C88.5638 20.9091 88.5394 21.015 88.522 21.0637L90.4055 21.7363C90.5215 21.4116 90.5638 21.0642 90.5638 20.72H88.5638ZM88.5022 21.1253C88.4867 21.1797 88.4442 21.2815 88.3397 21.4335L89.9878 22.5665C90.1766 22.2919 90.3342 21.9936 90.4253 21.6747L88.5022 21.1253ZM89.1637 21H84.3837V23H89.1637V21ZM97.5038 22C97.5038 21.851 97.5095 21.7306 97.5189 21.6358C97.5285 21.5391 97.5404 21.4824 97.5477 21.4559C97.5562 21.4252 97.5514 21.4604 97.5085 21.523C97.4607 21.5927 97.3558 21.7085 97.1749 21.7763L96.4726 19.9037C95.8979 20.1192 95.6953 20.6502 95.6198 20.9241C95.5313 21.2446 95.5038 21.6186 95.5038 22H97.5038ZM97.2068 21.7637L98.0268 21.4237L97.2607 19.5763L96.4407 19.9163L97.2068 21.7637ZM96.8197 19.9335L96.5997 20.2535L98.2478 21.3865L98.4678 21.0665L96.8197 19.9335ZM98.4238 20.82V16.26H96.4238V20.82H98.4238ZM98.4238 16.26C98.4238 15.6854 98.3324 15.0786 98.0023 14.5901C97.6251 14.0318 97.0427 13.78 96.4237 13.78V15.78C96.4667 15.78 96.4558 15.7876 96.4188 15.7693C96.3774 15.7489 96.3523 15.7204 96.3452 15.7099C96.3425 15.706 96.3642 15.7369 96.3857 15.8322C96.4071 15.9273 96.4238 16.0665 96.4238 16.26H98.4238ZM96.4237 13.78C95.8027 13.78 95.2249 13.9645 94.7145 14.3178L95.853 15.9622C96.036 15.8355 96.2181 15.78 96.4237 15.78V13.78ZM94.7145 14.3178C94.3297 14.5843 93.9914 14.8641 93.7312 15.1615L95.2363 16.4785C95.3495 16.3492 95.5445 16.1757 95.853 15.9622L94.7145 14.3178ZM95.4539 15.5775L95.1539 14.3775L93.2136 14.8625L93.5136 16.0625L95.4539 15.5775ZM94.1838 15.62H94.5038V13.62H94.1838V15.62ZM95.2029 15.335C95.7382 14.8116 96.2793 14.4247 96.8236 14.1581L95.9439 12.3619C95.1815 12.7353 94.4693 13.2551 93.8046 13.905L95.2029 15.335ZM96.831 14.1544C97.3953 13.8723 97.8685 13.76 98.2638 13.76V11.76C97.4856 11.76 96.7056 11.9811 95.9365 12.3656L96.831 14.1544ZM98.2638 13.76C98.751 13.76 98.9485 13.9099 99.0717 14.0947L100.736 12.9853C100.166 12.1301 99.2699 11.76 98.2638 11.76V13.76ZM99.0784 14.1047C99.2578 14.3669 99.4238 14.893 99.4238 15.84H101.424C101.424 14.7337 101.243 13.7265 100.729 12.9753L99.0784 14.1047ZM99.4238 15.84V20.56H101.424V15.84H99.4238ZM101.23 19.9686L101.01 19.6686L99.3973 20.8514L99.6173 21.1514L101.23 19.9686ZM99.9032 21.2138L101.363 21.6738L101.964 19.7662L100.504 19.3062L99.9032 21.2138ZM100.664 20.72C100.664 20.9258 100.643 21.0542 100.622 21.1253L102.545 21.6747C102.632 21.3724 102.664 21.0476 102.664 20.72H100.664ZM100.622 21.1253C100.607 21.1797 100.564 21.2815 100.46 21.4335L102.108 22.5665C102.297 22.2919 102.454 21.9936 102.545 21.6747L100.622 21.1253ZM101.284 21H96.5038V23H101.284V21ZM102.076 27.04L102.709 26.266L102.709 26.266L102.076 27.04ZM101.696 25.58L100.734 25.3053L100.725 25.3376L100.718 25.3705L101.696 25.58ZM101.916 25.1V24.1H101.395L101.097 24.5265L101.916 25.1ZM103.876 24.94L103.633 23.9698L103.626 23.9717L103.876 24.94ZM104.916 24.42L104.287 23.6428L104.266 23.6592L104.247 23.6767L104.916 24.42ZM105.636 23.46L104.741 23.0127L104.736 23.0244L105.636 23.46ZM106.236 21.96L107.235 22.0076L105.287 21.6438L106.236 21.96ZM106.176 23.22L105.247 23.591L107.175 23.2676L106.176 23.22ZM102.676 14.46L103.281 13.6638L100.409 11.481L101.747 14.831L102.676 14.46ZM103.176 14.84L102.909 15.8039L103.781 14.0438L103.176 14.84ZM101.656 14.42H100.656V15.1812L101.389 15.3839L101.656 14.42ZM101.736 13.72L100.794 13.3837L100.783 13.4142L100.774 13.4453L101.736 13.72ZM102.056 13.14V12.14H101.549L101.249 12.5486L102.056 13.14ZM106.896 13.14H107.896V12.14H106.896V13.14ZM106.576 14.38L106.892 15.3287L106.91 15.3228L106.927 15.3163L106.576 14.38ZM105.316 14.8L104.545 14.1631L102.324 16.8513L105.632 15.7487L105.316 14.8ZM105.696 14.34L106.625 13.9715L106.002 12.399L104.925 13.7031L105.696 14.34ZM107.876 19.84L107.901 20.8397L109.334 20.8039L108.805 19.4715L107.876 19.84ZM107.076 19.86L106.144 19.4962L105.597 20.8973L107.101 20.8597L107.076 19.86ZM109.216 14.38L110.144 14.0086L109.205 11.6595L108.284 14.0162L109.216 14.38ZM109.376 14.78L109.105 15.7427L111.058 16.2918L110.304 14.4086L109.376 14.78ZM108.096 14.42H107.096V15.1775L107.825 15.3827L108.096 14.42ZM108.156 13.58L107.2 13.2859L107.189 13.3202L107.181 13.3551L108.156 13.58ZM108.456 13.14V12.14H108.099L107.823 12.366L108.456 13.14ZM111.836 13.14H112.836V12.14H111.836V13.14ZM111.756 13.98L112.712 14.2741L112.715 14.2644L112.717 14.2547L111.756 13.98ZM111.516 14.3L111.165 13.3637L111.153 13.368L111.142 13.3726L111.516 14.3ZM110.376 14.76L109.702 14.0215L110.75 15.6874L110.376 14.76ZM110.836 14.34L111.768 14.7019L110.162 13.6015L110.836 14.34ZM107.676 22.48L106.744 22.1181L106.739 22.1289L107.676 22.48ZM105.676 26.06L106.432 26.7145L106.432 26.7145L105.676 26.06ZM103.196 26.4C102.926 26.4 102.79 26.3326 102.709 26.266L101.443 27.814C101.948 28.2274 102.559 28.4 103.196 28.4V26.4ZM102.709 26.266C102.671 26.2347 102.636 26.2043 102.636 26.06H100.636C100.636 26.7423 100.894 27.3653 101.443 27.814L102.709 26.266ZM102.636 26.06C102.636 26.0201 102.643 25.9342 102.674 25.7895L100.718 25.3705C100.669 25.5992 100.636 25.8333 100.636 26.06H102.636ZM102.657 25.8547C102.686 25.7548 102.716 25.7002 102.735 25.6735L101.097 24.5265C100.929 24.7665 100.812 25.0318 100.734 25.3053L102.657 25.8547ZM101.916 26.1H102.276V24.1H101.916V26.1ZM102.276 26.1C102.974 26.1 103.6 26.044 104.126 25.9083L103.626 23.9717C103.325 24.0493 102.884 24.1 102.276 24.1V26.1ZM104.118 25.9101C104.668 25.7727 105.172 25.5346 105.585 25.1633L104.247 23.6767C104.126 23.7854 103.937 23.894 103.633 23.9699L104.118 25.9101ZM105.545 25.1972C105.966 24.8562 106.289 24.4062 106.536 23.8956L104.736 23.0244C104.583 23.3405 104.425 23.5304 104.287 23.6428L105.545 25.1972ZM106.53 23.9072C106.758 23.4516 106.975 22.9043 107.184 22.2762L105.287 21.6438C105.096 22.2157 104.914 22.6684 104.741 23.0128L106.53 23.9072ZM105.237 21.9124L105.177 23.1724L107.175 23.2676L107.235 22.0076L105.237 21.9124ZM107.104 22.849L103.604 14.089L101.747 14.831L105.247 23.591L107.104 22.849ZM102.071 15.2562L102.571 15.6362L103.781 14.0438L103.281 13.6638L102.071 15.2562ZM103.442 13.8761L101.922 13.4561L101.389 15.3839L102.909 15.8039L103.442 13.8761ZM102.656 14.42C102.656 14.1957 102.678 14.0622 102.697 13.9947L100.774 13.4453C100.687 13.7511 100.656 14.0843 100.656 14.42H102.656ZM102.678 14.0563C102.705 13.9803 102.759 13.872 102.862 13.7314L101.249 12.5486C101.059 12.808 100.9 13.0864 100.794 13.3837L102.678 14.0563ZM102.056 14.14H106.896V12.14H102.056V14.14ZM105.896 13.14C105.896 13.3041 105.89 13.4384 105.88 13.5459C105.87 13.6553 105.857 13.7236 105.848 13.7601C105.837 13.8019 105.838 13.773 105.877 13.7133C105.919 13.6477 106.026 13.5181 106.225 13.4437L106.927 15.3163C107.526 15.0918 107.717 14.5206 107.784 14.2599C107.868 13.9327 107.896 13.5448 107.896 13.14H105.896ZM106.26 13.4313L105 13.8513L105.632 15.7487L106.892 15.3287L106.26 13.4313ZM106.087 15.4369L106.467 14.9769L104.925 13.7031L104.545 14.1631L106.087 15.4369ZM104.766 14.7085L106.946 20.2085L108.805 19.4715L106.625 13.9715L104.766 14.7085ZM107.851 18.8403L107.051 18.8603L107.101 20.8597L107.901 20.8397L107.851 18.8403ZM108.007 20.2238L110.147 14.7438L108.284 14.0162L106.144 19.4962L108.007 20.2238ZM108.287 14.7514L108.447 15.1514L110.304 14.4086L110.144 14.0086L108.287 14.7514ZM109.647 13.8173L108.367 13.4573L107.825 15.3827L109.105 15.7427L109.647 13.8173ZM109.096 14.42C109.096 14.0421 109.118 13.8596 109.13 13.8049L107.181 13.3551C107.114 13.6471 107.096 14.0246 107.096 14.42H109.096ZM109.112 13.8741C109.109 13.8811 109.105 13.8921 109.097 13.9033C109.09 13.9142 109.085 13.9174 109.089 13.914L107.823 12.366C107.531 12.6048 107.314 12.9156 107.2 13.2859L109.112 13.8741ZM108.456 14.14H111.836V12.14H108.456V14.14ZM110.836 13.14C110.836 13.4893 110.808 13.6561 110.794 13.7053L112.717 14.2547C112.81 13.9305 112.836 13.5374 112.836 13.14H110.836ZM110.8 13.6859C110.796 13.6994 110.807 13.6555 110.856 13.59C110.91 13.5172 111.011 13.4214 111.165 13.3637L111.867 15.2363C112.401 15.036 112.621 14.5672 112.712 14.2741L110.8 13.6859ZM111.142 13.3726L110.002 13.8326L110.75 15.6874L111.89 15.2273L111.142 13.3726ZM111.05 15.4985L111.51 15.0785L110.162 13.6015L109.702 14.0215L111.05 15.4985ZM109.904 13.9781L106.744 22.1181L108.608 22.8419L111.768 14.7019L109.904 13.9781ZM106.739 22.1289C106.207 23.5475 105.594 24.6271 104.92 25.4055L106.432 26.7145C107.305 25.7062 108.024 24.3991 108.612 22.8311L106.739 22.1289ZM104.92 25.4055C104.268 26.1587 103.695 26.4 103.196 26.4V28.4C104.457 28.4 105.537 27.7479 106.432 26.7145L104.92 25.4055Z" fill="black" mask="url(#path-2-outside-1_109_5)"/>
</svg>
